<?xml version="1.0" encoding="utf-8"?>
<!-- Generator: Adobe Illustrator 24.1.1, SVG Export Plug-In . SVG Version: 6.00 Build 0)  -->
<svg version="1.1" xmlns="http://www.w3.org/2000/svg" xmlns:xlink="http://www.w3.org/1999/xlink" x="0px" y="0px"
	 viewBox="0 0 350 350" style="enable-background:new 0 0 350 350;" xml:space="preserve">
<style type="text/css">
	.st0{fill:#FFFFFF;}
	.st1{fill:#297A8E;}
	.st2{fill:#595959;}
	.st3{fill:#0F2C32;}
	.st4{fill:#E5E5E5;}
</style>
<g id="IconGuides">
</g>
<g id="Ace">
	<g id="Background">
		<path class="st0" d="M249.3,329.9c-1.1-1.3-2.8-3.2-4.9-5.7c-2.9-3.6-3.2-4.3-6.7-8.8c-3.5-4.5-5.3-6.7-6-7.4
			c-0.6-0.6-2.1-2-3.5-4.3c-0.6-1-0.7-1.3-1.2-2.2c-1.3-2.4-2.8-3.6-4.6-5.4c-1.7-1.7-2.9-3.1-5.3-5.9c-4.1-4.7-5.2-6.7-5.8-7.8
			c-0.2-0.5-0.5-1-1-1.8c-1.3-2.1-2.6-3.6-3.6-4.5c-1,3-2.3,5.1-3.2,6.6c-1,1.5-1.9,2.6-2.8,4.7c-0.4,1.1-0.4,1.4-1.1,3
			c-0.7,1.6-1.3,2.7-1.8,3.8c-0.5,1-1.3,2.3-2.2,3.7c-1.5-3-2.3-4.4-2.7-5c-0.1-0.2-0.5-0.7-0.8-1.4c-0.4-0.7-0.4-0.8-0.7-1.5
			c-0.4-0.8-0.7-1.2-1.2-1.7c-0.5-0.5-0.7-0.3-1.2-0.8c-0.3-0.3-0.5-0.7-0.8-1.3c-0.5-1-0.4-1.1-0.7-1.8c-0.1-0.2-0.5-0.6-1.1-1.4
			c-0.9-1.1-0.9-1-1.1-1.4c-0.4-0.6-0.8-1.1-1.1-1.9c-0.3-0.9-0.1-1.1-0.4-1.7c-0.3-0.5-0.5-0.4-1-1c-0.7-0.9-0.5-1.4-1.1-1.8
			c-0.4-0.2-0.5-0.1-0.9-0.3c-0.7-0.4-0.7-1.2-1.2-2.3c-0.1-0.2-0.4-0.7-1.1-1.9c-1.4-2.4-2.2-3.7-2.5-3.9c-0.4-0.3-1-0.8-1.4-1.7
			c-0.1-0.2-0.2-0.4-0.3-0.7c-0.3-0.7-0.4-1.2-0.4-1.4c-0.2-0.8-0.8-1.4-2-2.8c-1-1.2-1.7-2.1-2.2-2.8c-1.2-1.7-1.3-2.2-1.4-2.6
			c-0.1-0.4-0.1-0.8-0.4-1.3c-0.3-0.6-0.6-1.1-0.9-1.4c-1.9,1.2-2.5,2.3-2.7,3c-0.1,0.2-0.2,0.8-0.6,1.6c-0.3,0.6-0.6,0.9-0.9,1.3
			c-0.8,0.9-0.3,0.4-2.1,2.8c-1,1.2-1.4,1.8-1.9,2.4c-1.6,1.9-2,1.9-3.3,3.5c-1,1.3-0.7,1.2-1.8,2.6c-0.9,1.1-1.3,1.4-2.4,2.8
			c-0.7,0.8-1,1.2-1.4,1.8c-0.6,0.9-0.9,1.4-1.6,2.2c-0.4,0.4-0.6,0.6-0.9,0.9c-1.1,1.2-1.7,2.2-2.1,3c-0.8,1.3-1.1,1.3-3.1,3.6
			c-1.6,1.9-1.4,1.9-4,5.2c-0.9,1.1-2.1,2.7-3.8,4.7c-1.9,2.2-3.8,4.3-4,4.5c-2.2,2.4-2.7,2.7-3.6,4.1c-0.8,1.2-1,1.7-1.9,2.9
			c-1.1,1.3-1.9,2-2.7,2.7c-1.3,1.2-2.5,2.7-4.9,5.9c-1.1,1.5-2.5,3.3-4,5.6c-0.6-5.1-1.2-9.4-1.6-12.5c-0.8-6.3-1.1-8.2-1.4-10.4
			c-0.9-5.5-1-5.2-1.7-9.6c-0.8-5.1-0.8-6.5-1.9-15.6c-0.4-3-0.7-5.4-0.9-7c-2.6,1.9-4.6,3.4-6,4.5c-3.4,2.7-4.5,3.7-7.6,6.1
			c-3.3,2.5-3.1,2.1-5.6,4.1c-4.3,3.3-5.3,4.8-9.9,8.6c-1.4,1.2-3.5,2.8-6.2,4.8c0.8-11,1.6-18.6,2.3-23.7c0.6-4.9,1.2-9.8,1.8-14.6
			c0.1-0.5,0.4-3.3,0.7-6.9c0.2-2.4,0.3-3.6,0.3-4.2c0.1-2.4,0.1-4.3,0.1-5.8c-5.2,5.8-10.5,11.5-15.7,17.3c0-64.7,0-129.4,0-194.2
			h230c0,61.5,0,123,0,184.5c-2.7-0.8-5.3-1.6-8-2.4c-0.3,3-0.5,6.2-0.6,9.5c-0.1,4.2-0.1,8.2,0,11.9c0.3-0.3,0.6-0.7,0.9-1.3
			c0.3-0.6,0.2-0.8,0.5-1.4c0.3-0.5,0.7-0.9,0.8-1.1c0.2-0.2,0.3-0.3,0.4-0.4c0,1.3,0,2.2,0,2.9c0,0.1,0,0.2,0,0.4
			c0,0.4,0.1,0.9,0.2,2.3c0.2,2.9,0.2,4.1,0.3,4.1c0.1,0,0.1-1,0.1-1.4c0.1-1.4,0-2.3,0-2.3c0,0,0.2,1.2,0.3,2.7
			c0.1,1.1,0.1,1.9,0.1,2.4c0.1,1.8,0.3,3.1,0.6,4.7c0.6,3.8,1.2,7.5,1.9,13.1c0.3,1.9,0.5,3.5,0.6,4.6c-7.3-5.7-10.1-7.5-11-7.6
			c-0.1,0-0.4,0-0.9-0.2c-0.8-0.3-1.2-0.8-1.6-1.2c-0.9-0.9-0.8-0.5-2.1-1.6c-1.3-1.2-1.8-1.9-2.8-2c-0.3,0-0.3,0-0.6,0
			c-1.1-0.1-1.8-1.1-2.5-1.8c-1-1-1.3-0.7-2.8-1.8c-1.6-1.1-2.2-2.1-3.3-3.2c-1.6-1.8-3.8-3.2-8.2-6.2c-1.7-1.1-3.1-2-4-2.6
			c-0.1,4-0.1,7.4,0,10.3c0.1,3.9,0.2,4.9,0.3,9.1c0.1,4.5,0,5.9,0,10.2c0,5.8,0.3,9.2,0.4,12.9
			C249.5,312.3,249.6,319.9,249.3,329.9z"/>
		<path d="M69.6,210.4c0-46.9,0-93.9,0-140.8c70.3,0,140.6,0,210.9,0c0,46.8,0,93.6,0,140.4C210.3,210.1,139.9,210.2,69.6,210.4z"/>
		<path class="st1" d="M238.9,299.7c-9-11.2-17.9-22.3-26.9-33.5c-5.3-18-10.7-36.1-16-54.1c-4.1,10.2-8.3,20.4-12.4,30.6
			c-3.6-6.1-7.1-12.1-10.7-18.2c-16.8,20.9-33.5,41.8-50.3,62.7c-3.1-18.9-6.2-37.7-9.3-56.6c-8.4-5.9-16.8-11.8-25.3-17.6
			c-6.2,3.1-12.3,6.2-18.5,9.2c0-15.6,0-31.2,0-46.8c3.2-3.2,6.3-6.5,9.5-9.7c0-28.9,0-57.7,0-86.6c64,0,128,0,191.9,0
			c0,43.8,0,87.7,0,131.5c1.8,8.9,3.5,17.8,5.3,26.6c0.1,11.5,0.3,22.9,0.4,34.4c-10.3-8.2-20.6-16.5-30.9-24.7
			c-2.2,0.7-4.4,1.5-6.7,2.2C239.1,266,239,282.9,238.9,299.7z"/>
		<g>
			<g>
				<path class="st0" d="M221.2,79.1c-35.4,45.7-70.8,91.3-106.2,137c-4.1,5.2-8.1,10.5-12.2,15.7c-6.1,0.3-12.3,0.6-18.4,0.8
					c-5.3-3.2-10.6-6.4-15.9-9.6c0-15.7,0.1-31.5,0.1-47.2c3.5-3.4,7-6.8,10.4-10.2c35.4-28.9,70.8-57.7,106.3-86.6
					C197.3,79.1,209.3,79.1,221.2,79.1z"/>
				<path class="st2" d="M221.2,79.1c1.1,0,2.3,0,3.4,0c-46.5,59.2-93,118.5-139.5,177.7c0-0.8,0-1.5,0-2.3
					C130.6,196,175.9,137.6,221.2,79.1z"/>
				<polygon class="st3" points="85.2,256.8 85.2,263 225.4,79.1 224.7,79.1 				"/>
			</g>
			<path class="st0" d="M242.7,79.1c-0.6,0.6-1.4,1.5-2.2,2.8c-1.3,2.3-1.6,4.8-1.4,4.8c0,0,0.1-0.1,0.4-0.5
				c0.2-0.2,0.4-0.4,0.5-0.6c0.1,0.6,0.2,1.5-0.3,2c-0.5,0.6-1,0.4-1.6,0.9c-0.7,0.6-0.5,1.4-0.8,2.7c-0.2,0.7-0.5,1.6-1.2,2.7
				c0.1,0,0.4,0.1,0.7-0.1c0.2-0.1,0.3-0.2,0.4-0.3c0,0.1,0.1,0.9-0.4,1.3c-0.2,0.2-0.5,0.2-0.7,0.2c-0.6,0-0.8-0.3-1-0.1
				c-0.3,0.2,0,0.6-0.3,1.5c-0.1,0.3-0.1,0.2-0.2,0.6c-0.2,0.6-0.2,1-0.6,2.2c-0.6,1.7-0.9,1.6-1.3,2.9c-0.4,1.2-0.3,1.8-0.4,3.1
				c-0.2,2-0.7,3.2-1.1,4.6c-0.9,2.8-13.6,46.3-31.2,106.1l50.2,9.3l10.7-146.3C254.8,79.1,248.7,79.1,242.7,79.1z M241.7,82.1
				c-0.4,0.7-0.7,1.3-1.1,1.8c0-0.4,0.2-1.1,0.5-1.9c0.4-0.8,0.9-1.3,1.2-1.6C242.2,80.9,242,81.5,241.7,82.1z"/>
			<g>
				<path class="st3" d="M144.1,79.1l-65,38.3v29.4c4.7-3.7,9.4-7.4,14.1-11.2c21.2-16.8,42.4-33.7,63.6-50.5c2.5-2,5.1-4,7.6-6
					C157.6,79.1,150.9,79.1,144.1,79.1z"/>
				<path class="st3" d="M79.1,115.8c0.6-0.3,1.4-0.7,2.4-1.2c3.9-2.1,6.3-3.7,6.3-3.6c0.1,0.1-2.7,2.1-5.7,4.2
					c-1.2,0.8-2.2,1.5-3,1.9C79.1,116.6,79.1,116.2,79.1,115.8z"/>
				<path class="st3" d="M82.6,109.9c3.2-1.8,5.7-3.3,7.5-4.3c2.4-1.4,4-2.3,4.1-2.2c0.1,0.1-1.3,1.1-2.5,1.9c0.6-0.2,1.5-0.5,2.5-1
					c0.9-0.5,1.5-0.9,1.5-0.9c0,0.1-0.9,0.9-2,1.6c-1.5,1-2.8,1.4-3.2,1.5C89,107,86.6,108,82.6,109.9z"/>
				<path class="st3" d="M79.1,110.7c2-1.3,4-2.6,6-3.9c-0.6,0.7-1.2,1.3-2,2c-1.4,1.3-2.8,2.2-4,2.8
					C79.1,111.3,79.1,111,79.1,110.7z"/>
				<path class="st3" d="M97.4,102c0,0,0.3-0.7,1.1-1.2c0.9-0.6,1.7-0.6,2.4-0.7c2.4-0.4,3.9-2.5,3.9-2.6c0,0-1.3,1.4-3.5,2
					c-1,0.2-1.5,0.1-2.3,0.6C97.9,100.9,97.3,102,97.4,102z"/>
				<path class="st3" d="M98,103c-0.1-0.1,0.4-1,1.2-1.2c0.5-0.2,0.7,0.1,1.2-0.1c0.7-0.3,1-1,1.1-0.9c0.1,0,0,0.5-0.4,0.8
					c-0.4,0.4-0.8,0.3-1.4,0.4C98.6,102.3,98.1,103,98,103z"/>
				<path class="st3" d="M102.7,101c0,0,0.2-0.3,0.7-0.9c0.2-0.2,0.3-0.4,0.6-0.6c0.1-0.1,0.4-0.3,0.5-0.2c0.1,0.1-0.2,0.4-0.4,0.6
					C103.5,100.7,102.7,101.1,102.7,101z"/>
				<path class="st3" d="M96.5,105.4c-0.1-0.1-0.6,0.4-1,0.9c-0.1,0.2-0.2,0.3-0.3,0.4c-0.7,1-2.7,0.9-2.7,1c0,0.1,1.4,0.4,2.6-0.4
					C96.1,106.6,96.6,105.5,96.5,105.4z"/>
				<path class="st3" d="M92.1,108.4c-0.1-0.1-0.7,0.3-1.3,0.9c-0.3,0.3-0.7,0.8-0.6,0.8c0.1,0.1,0.7-0.4,1.2-0.8
					C91.4,109.2,92.2,108.5,92.1,108.4z"/>
				<path class="st3" d="M130.5,86.9c-2.6,1.4-5.3,2.7-7.9,4.1c-4.1,1.9-7.1,3.6-9.2,4.9c-0.8,0.5-3,1.9-6,3.7
					c-1.2,0.7-3.5,2-3.6,1.9c-0.1-0.1,3.8-2.8,7.8-5.3c2.7-1.6,5.6-3.1,11.5-6.2c3.2-1.7,5.1-2.6,7.4-3.6c2.1-0.9,3.9-1.6,5.2-2.1
					C134,85.1,132.3,86,130.5,86.9z"/>
				<path class="st3" d="M117.1,90.1c0.1,0.2,4.3-2.1,4.6-2.8c0,0,0.1-0.2,0.3-0.5c0.2-0.3,0.4-0.4,0.4-0.4c0-0.1-1.9,0.7-1.8,0.9
					c0,0.1,0.4,0,0.4,0.1C121.1,87.8,117,89.9,117.1,90.1z"/>
				<path class="st3" d="M123.6,85.9c0-0.1,0.6,0,1.5-0.4c0.8-0.3,1.2-0.7,1.3-0.6c0.1,0.1-0.2,0.5-0.5,0.7
					C125,86.3,123.6,86,123.6,85.9z"/>
				<path class="st3" d="M120.2,89.7c-0.1-0.1,1.4-1.1,2.7-1.8c1-0.6,1.4-0.7,2.8-1.5c0.8-0.4,1.3-0.7,2-1.2
					c2.9-1.7,4.4-2.8,4.5-2.7c0.1,0.1-0.7,0.8-0.8,0.9c-2,1.8-3.9,2.6-5,3.1C122.4,88.4,120.3,89.8,120.2,89.7z"/>
				<path class="st3" d="M136.2,79.9c-1.1,0.6-2.3,0.8-2.3,0.7c0-0.1,0.2-0.2,1.4-0.9c0.4-0.3,0.8-0.5,1-0.6c0.4,0,0.7,0,1.1,0
					C137.1,79.3,136.7,79.6,136.2,79.9z"/>
				<path class="st3" d="M135.5,81.6c-1.3,0-2.4,1.1-2.3,1.2c0,0.1,0.4-0.2,1.4-0.5c1.1-0.3,1.7-0.4,1.7-0.5
					C136.3,81.7,135.9,81.6,135.5,81.6z"/>
				<path class="st3" d="M138,80.9c-0.3,0-0.6-0.1-0.6-0.2c0-0.1,0.4,0,0.7-0.2c0.4-0.2,0.5-0.7,0.6-0.6c0.1,0,0,0.3-0.1,0.5
					C138.6,80.5,138.4,80.9,138,80.9z"/>
				<path class="st3" d="M139,79.5c-0.1,0-0.3-0.1-0.3-0.2c0-0.1,0.2-0.2,0.2-0.2c0.2,0,0.5,0,0.7,0C139.4,79.4,139.2,79.5,139,79.5
					z"/>
				<path class="st3" d="M137.6,82.1c-0.1-0.1-1.3,0.9-2.2,1.7c-0.6,0.6-1.2,1.2-1.1,1.4c0.1,0.1,0.9-0.1,1.5-0.7
					c0.2-0.2,0.3-0.3,0.4-0.5C137.2,82.8,137.7,82.2,137.6,82.1z"/>
				<g>
					<path class="st3" d="M93.3,135.9c-2.4,2.4-4.5,4.3-6.1,5.8c-3.4,3.1-2.6,2.1-4.7,4.1c-1.6,1.5-3,2.9-3.4,2.6
						c-0.2-0.1-0.1-0.5,0-0.8c0.7-0.5,1.6-1.2,2.8-2.2c2.3-1.8,3.8-3.1,5.8-4.8C89,139.5,90.9,137.8,93.3,135.9z"/>
					<g>
						<path class="st3" d="M79.1,150.2c0.2-0.1,0.4-0.3,0.7-0.5c0.6-0.5,0.8-0.7,0.8-0.7c0.1,0-0.3,0.6-0.7,1
							c-0.3,0.3-0.6,0.5-0.8,0.6C79.1,150.5,79.1,150.3,79.1,150.2z"/>
						<path class="st3" d="M81.8,147.3c0.1,0.1,1.5-1,2.6-1.9c6.2-4.7,11.3-9.6,11.2-9.8C95.5,135.4,81.7,147.1,81.8,147.3z"/>
						<path class="st3" d="M96.9,136.4c-0.1-0.1-1.5,0.9-2.7,1.8c-1.9,1.5-3.9,3.4-3.8,3.6c0.1,0.2,2.9-1.9,5.2-4
							C96,137.3,97,136.5,96.9,136.4z"/>
						<path class="st3" d="M96.1,135.5c-0.1-0.2,3.5-3.4,5.6-5.2c4.5-3.8,9.4-7.4,9.6-7.2c0.1,0.1-0.6,0.7-1.4,1.6
							c-2.5,2.4-4.6,4-4.8,4.2C99,133.4,96.3,135.7,96.1,135.5z"/>
						<path class="st3" d="M101.8,132.4c0-0.1,0.5-0.4,1.6-1.2c0.9-0.6,1.4-0.9,1.4-0.9c0.1,0.1-0.4,0.6-0.8,0.9
							C103,132.1,101.8,132.5,101.8,132.4z"/>
						<path class="st3" d="M102,133.1c-0.1-0.1-2,1-1.9,1.2c0,0.1,0.4,0.2,0.5,0c0,0,0,0,0-0.1c0.2-0.3,0.6-0.5,1-0.8
							C101.8,133.5,102,133.2,102,133.1z"/>
						<path class="st3" d="M110.6,125c1.9-1.3,3.2-2.5,4.1-3.4c1.4-1.3,2.2-2.3,4-3.5c1-0.7,1.5-0.9,2.4-1.4
							c3.8-2.1,4.2-3.6,8.7-6.6c1.8-1.2,1.5-0.9,3.7-2.3c2.1-1.5,3-2.2,5.8-4.3c2.3-1.7,2.1-1.5,3.9-2.8c2-1.5,2.6-2,7.8-6.3
							c4.5-3.6,5.2-4.2,5.7-4.5c1.4-1,2.2-1.6,4.2-3c1.6-1.2,2.7-2.1,3.5-2.8c1.6-1.3,3.6-2.9,5.9-5c0.2,0,0.5,0,0.7,0
							c-0.3,0.3-0.8,0.8-1.3,1.4c-4.1,4.2-4.9,4.7-7.4,7.3c-2.6,2.7-4,4.5-4.2,4.3c-0.1-0.1,0.5-1.2,1.1-1.9c1-1.3,1.9-2.1,1.9-2.1
							c0,0-1.4,1.2-2.9,2.4c-1.4,1.2-1.7,1.4-2.1,1.5c-0.5,0.2-1,0.2-1.7,0.7c-0.3,0.2-0.6,0.5-0.9,0.7c-0.6,0.6-1,1-1.2,1.3
							c-0.6,0.7-1,0.9-2.2,1.8c-1.5,1.2-1.3,1.2-2.9,2.4c-1.4,1-1.9,1.3-3.7,2.6c0,0-1.9,1.4-3.5,2.6c-4.8,3.7-4.4,5.4-8.5,8.3
							c-0.9,0.6-0.9,0.5-4.4,2.7c-2.9,1.8-2.9,1.9-3.5,2.2c-1.9,0.8-2.9,0.8-4.5,2c-0.4,0.3-0.5,0.4-1.3,1.1c-1,0.8-1.8,1.3-2.6,1.8
							C113.5,123.2,111.9,124.2,110.6,125z"/>
						<path class="st3" d="M156.2,92.8c-0.1-0.2-1.8,0.3-3,1.6c-0.6,0.7-0.9,1.5-1.1,1.9c-0.2,0.5-0.5,1.3-0.4,1.4
							c0.1,0.1,0.7-1.3,2-2.8C155.1,93.4,156.3,92.9,156.2,92.8z"/>
						<path class="st3" d="M157.8,92c0.2,0.2-0.7,1.8-2.1,3.2c-1.9,1.9-4.4,2.7-4.5,2.4c-0.1-0.1,0.6-0.6,3.4-3
							C157,92.6,157.7,91.9,157.8,92z"/>
						<path class="st3" d="M143,103.9c-0.3-0.3,2.1-3.1,2.4-2.9c0.2,0.1-0.1,1-0.5,1.5C144.3,103.5,143.2,104.1,143,103.9z"/>
						<path class="st3" d="M147.1,100.6c0.2-0.3,0.5-0.6,2.2-1.6c1.8-1.1,2-1.2,2.1-1.1c0.2,0.1,0,0.7-0.3,1
							c-0.4,0.6-1.1,0.7-1.3,0.7c-0.8,0.2-1.9,0.8-3.4,2.7C146.5,101.8,146.6,101.2,147.1,100.6z"/>
						<path class="st3" d="M139.4,106.6c1.5-1.4,3.2-3.3,3-3.5c-0.1-0.1-0.9,0.8-3.1,2.2c-0.7,0.4-1.3,0.8-1.8,1.6
							c-0.4,0.5-0.7,1.3-0.5,1.5C137.3,108.6,138.6,107.4,139.4,106.6z"/>
						<path class="st3" d="M169.2,79.1c-0.4,0.2-1,0.6-1.5,1c-0.2,0.2-0.4,0.4-0.6,0.6c0,0,0,0,0,0.1c0,0.2,0.1,0.3,0.1,0.3
							c0,0.2-0.9,0.3-1.4,0.4c-1.3,0.3-2.2,1.3-3,2.1c-0.6,0.6-0.9,1-0.9,1c-0.5,0.6-0.6,0.8-1,1.1c-0.4,0.2-0.4,0.1-0.9,0.3
							c-0.5,0.2-0.5,0.3-1.2,0.8c-0.7,0.5-0.8,0.4-1.2,0.7c-0.4,0.3-0.3,0.4-0.7,0.6c-0.5,0.3-0.9,0.5-0.8,0.6
							c0,0.1,0.4,0.1,0.4,0.1c0,0.1-0.3,0.2-0.6,0.4c-0.3,0.2-0.4,0.3-0.9,0.7c-0.4,0.3-0.4,0.3-0.8,0.5c-0.3,0.3-0.9,0.7-1.5,1.4
							c-0.5,0.6-0.7,0.8-0.7,0.8c-0.1,0,0.3-1,1.1-1.7c0.6-0.7,1-1,1-1c0.2-0.2,0.5-0.3,0.7-0.6c0.1-0.2,0.1-0.3,0.3-0.6
							c0.2-0.4,0.4-0.7,0.4-0.8c0.3-0.6,0.8-0.4,2.1-1.3c0.7-0.5,1-0.7,1.1-0.7c0.4-0.3,0.5-0.4,0.7-0.5c0.5-0.1,0.7,0.2,1.1,0.1
							c0.4-0.1,0.5-0.5,1-1.2c0.2-0.2,0.4-0.5,0.9-0.9c1-0.9,1.9-1.5,2.3-1.8c0.3-0.2,0.3-0.2,0.6-0.4c0.8-0.5,1.5-1.1,1.9-1.4
							c0.2-0.1,0.4-0.3,0.7-0.6C168.3,79.1,168.8,79.1,169.2,79.1z"/>
						<path class="st3" d="M159.5,83.9c0.1,0.2,3.5-2.8,4.2-3.4c0.1-0.1,0.3-0.3,0.5-0.6c0.2-0.3,0.2-0.6,0.2-0.8
							c-0.1,0-0.3,0-0.4,0c-0.3,0.3-0.7,0.7-1.2,1.3c-0.4,0.4-0.7,0.7-0.8,0.8C160.5,82.9,159.4,83.8,159.5,83.9z"/>
						<path class="st3" d="M156.8,85.9c-1,1-2.1,1.9-3.2,2.9c-1.7,1.5-3.4,2.9-5,4.2c0.1-0.3,0.3-0.8,0.7-1.2
							c0.4-0.5,0.7-0.7,1.7-1.4c0.8-0.6,1.3-1,2-1.6c1-0.8,1.1-1,1.3-1.3c0.2-0.3,0.2-0.5,0.5-0.8c0.2-0.1,0.3-0.2,1-0.5
							C156.2,86.1,156.5,86,156.8,85.9z"/>
						<path class="st3" d="M148.1,92.9c0.1,0.1-4.7,4.4-12.8,11.5c-2.6,2.3-1,0.9-3.5,3c-1.5,1.3-2.4,2.1-2.5,2.1
							c-0.1-0.1,1.9-2.2,1.8-2.3c-0.2-0.2-3.4,2.6-5.7,4.9c-0.3,0.3-0.6,0.6-0.6,0.6c-0.1-0.1,1.5-2.4,3.9-4.4
							c1.8-1.6,2.5-1.6,5.3-3.7c1.1-0.9,1.9-1.6,2.3-2C140.5,98.6,147.9,92.8,148.1,92.9z"/>
						<path class="st3" d="M114.5,121.1c0.1,0.1,0.8-1.4,2.8-3.5c2-2.1,4.6-3.9,6.4-5.2c1.2-0.8,1.7-1.2,1.7-1.3
							c-0.1-0.2-3,0.7-5.3,2.4C115.9,116.4,114.3,121,114.5,121.1z"/>
					</g>
				</g>
			</g>
			<g>
				<polygon class="st3" points="260.9,79.1 270.1,79.1 265.5,189.4 253.2,184.8 				"/>
				<path class="st3" d="M271,92.7c-0.3,0-1.1,8.5-1.6,15.5c-0.4,5.2-0.7,12.1-0.5,12.1c0.1,0,0.6-3.7,2.1-21.3
					C271.2,93.8,271.1,92.7,271,92.7z"/>
				<path class="st3" d="M269.6,123.1c-0.2,0-0.1,2.1-0.4,5.8c-0.4,4.7-1.2,7.9-1,7.9c0.1,0,0.7-2.2,1-4c0.4-1.7,0.6-3,0.7-4.6
					C270.1,125.5,269.8,123.1,269.6,123.1z"/>
				<path class="st3" d="M269.6,142.7c0.2-1.8,0.3-4.3-0.3-7.2c-0.4-2-0.9-3.8-1-3.8c-0.1,0,0.4,2.1,0.8,4.9
					C269.5,139.1,269.6,141.2,269.6,142.7z"/>
			</g>
		</g>
	</g>
	<g id="Card2">
		<g>
			<path d="M334.7,222.7c0.2,0.3,1.4,1.8,1,3.7c-0.4,2.2-2.5,3.3-2.9,3.5c-0.8,0.4-0.8,0.1-2.8,0.7c-1.2,0.4-2,0.6-3,1.2
				c-0.7,0.4-0.8,0.7-1.5,0.9c-0.7,0.3-1.2,0.3-2.2,0.5c-1.4,0.2-1,0.2-2.8,0.5c-1.3,0.2-3.5,0.5-3.6,0.3c0-0.1,0.2-0.1,0.9-0.5
				c0.8-0.4,0.9-0.6,1.8-1.2c0.5-0.3,0.4-0.2,1.3-0.7c0.8-0.4,1.4-0.8,1.4-0.9c0-0.1-0.3,0-0.9,0.2c-1,0.2-2,0.4-2,0.3
				c0-0.1,0.9-0.2,1.8-0.7c0.7-0.3,1.2-0.8,1.5-1.1c-0.3,0.2-0.6,0.3-1,0.5c-1.7,0.7-3.2,0.7-3.2,0.7c0-0.1,0.8-0.1,2.1-0.6
				c1-0.4,1.8-0.8,2.2-1c0.6-0.3,0.6-0.3,1.8-1.1c0.3-0.2,1.1-0.6,2.1-1.2c1.4-0.8,2.1-1.2,2.2-1.2c0.1,0,0.7-0.1,1.1-0.6
				c0.1-0.1,0.3-0.3,0.3-0.5c0-0.1-0.2-0.1-0.3-0.2c-0.2-0.2-0.2-0.3-0.3-0.4c-0.2-0.1-0.3,0.1-0.6,0.1c-0.2,0-0.3-0.1-0.5-0.1
				c-0.6-0.2-1,0.2-1.1,0c-0.1-0.2,0.6-1.2,1.4-1.2c0.3,0,0.5,0.1,0.9,0.1c0.3-0.1,0.7-0.3,0.7-0.5c0-0.2-0.5-0.2-1-0.6
				c-0.2-0.1-0.7-0.4-1-0.9c-0.3-0.6,0-1-0.3-2.1c-0.1-0.5-0.3-1.1-0.4-1.1c-0.1,0,0,1.2,0.1,2.1c0.1,0.4,0.1,0.7,0.1,0.8
				c-0.1,0-0.4-0.8-0.5-0.9c-0.3-0.8-0.3-1-0.6-1.9c-0.1-0.4-0.3-0.8-0.6-1.5c-0.5-1.1-0.7-1.4-0.6-1.4c0.1-0.1,1.1,0.9,1.5,2.2
				c0.2,0.6,0.2,1.2,0.3,1.2c0.1,0,0.1-1.1-0.1-2.2c-0.4-2.2-2.1-3.8-4.6-6.4c-0.4-0.4-0.8-0.8-1.1-1c0,0.2,0.1,0.6,0.2,0.9
				c0.2,0.6,0.6,1,0.8,1.2c1.7,2,2.1,2.4,2.3,3c0.2,0.6,0.3,1.2,0.2,1.2c-0.1,0-0.4-0.6-0.9-1.4c0,0-0.2-0.3-1.4-2.1
				c-0.8-1.2-1.4-1.8-3.2-3.9c-2.3-2.8-3.4-4.2-3.7-4.5c-0.9-1-1.6-2.2-2.5-3c0,0-1-0.9-1.4-2c-0.1-0.4-0.1-0.9-0.1-0.9
				c0-0.2,0.1-0.4,0.1-0.5c0.2,0.3,0.5,0.7,0.7,1c1,1.2,2,2.3,2.9,3.1c-0.6-0.9-1.5-2.1-2.7-3.6c-1.5-1.9-3.4-4.1-3.5-4
				c-0.1,0.1,1.4,2.2,1.3,2.2c-0.1,0.1-1-1.1-1.7-2c-0.8-1.1-1-1.5-2.1-2.9c-1.5-2.1-2-2.6-2.1-2.5c0,0,0.3,0.4,0.3,1
				c0,0.2,0,0.3,0,0.4c-0.2-0.2-0.6-0.6-0.9-1.2c-0.1-0.3-0.2-0.4-0.3-0.6c-0.4-0.7-0.9-1-1.2-1.3c-0.2-0.2-0.7-0.7-1.5-1.8
				c-0.9-1.1-2.6-3.4-4.6-6.6c3.7,4.2,7.9,8.9,8.1,8.8c0.1-0.1-0.6-1-2.3-3.3c-5-6.6-12.7-16.4-13.5-17.4c0,0-1.8-2.3-3.4-4.8
				c-0.5-0.8-0.8-1.3-1.3-2c-0.5-0.8-0.6-1.2-1.2-2.1c-0.2-0.3-0.5-0.8-0.9-1.4c-0.1-0.2-0.2-0.3-0.3-0.5c0.7,0.8,1.2,1.6,1.7,2.2
				c0.9,1.2,1.4,1.9,2,3c0.6,1.1,1,1.8,1.1,1.7c0.1,0-0.4-1.3-1-2.4c-0.4-0.9-0.9-1.5-1.2-2c0.3,0.3,0.7,0.7,1.1,1.3
				c0.7,0.9,0.9,1.5,1,1.5c0,0-0.5-1.7-1.9-3.4c-0.5-0.6-0.4-0.4-1.1-1.2c-1.2-1.3-2-2.6-2.7-3.7c-0.3-0.4-0.5-0.7-0.6-0.9
				c-4.5-4.9-6.8-6.6-8-7.1c-0.3-0.1-2-0.7-2.1-1.8c0-0.3,0-0.5-0.1-1c-0.2-0.5-0.5-0.9-0.8-1.1c0,0.5,0,1-0.2,1.1
				c-0.3,0.1-0.7-0.7-1.3-1.5c-0.3-0.4-1.4-1.9-2.9-2.8c-1.5-0.9-2.1-0.7-3.8-1.5c-0.8-0.4-1.1-0.7-1.7-1c-0.2-0.1-0.3-0.1-0.4-0.2
				c0.5,0.1,1,0.2,1.6,0.4c2.6,0.8,4.1,1.9,4.2,1.8c0.1-0.1-1.5-1.5-3.7-2.2c-1.2-0.4-2.3-0.5-3-0.5c-0.3-0.1-0.6-0.2-1.1-0.4
				c0.7-0.1,1.6-0.1,2.7,0c0.9,0.3,1.9,0.7,2.8,1.2c3.5,1.9,5.3,4.6,5.4,4.5c0.1-0.1-1.9-3.3-5.7-5.3c0.9,0.2,1.8,0.6,2.8,1.1
				c3,1.6,4.7,4.2,4.9,4c0.2-0.1-1-2.4-3.1-3.9c-2.1-1.5-4.5-2-6.6-2c-3.8-1.2-7-0.6-7-0.5c0,0.1,2.3-0.2,5.2,0.6
				c-0.7,0.1-1.3,0.2-1.8,0.3c-0.2,0-0.3-0.1-0.5-0.1c-1.6-0.3-4.1-0.2-6.6,0.7c-3,1.2-3.7,1.5-3.7,1.5c-0.1,0-1,0.5-1.1,0.4
				c-0.1-0.1,0.5-0.5,0.4-0.7c-0.1-0.2-1.1,0.1-1.9,0.3c-0.7,0.2-1.7,0.7-2.9,1.4c-18.2,3.9-36.3,7.8-54.5,11.8
				c1.9,30,3.2,51.9,3.3,54c0,2.1,0.1,3.2-0.2,4.3c-0.1,0.3-0.2,0.8-0.2,1.4c-0.1,1.1,0.1,2.1,0.3,2.7c0.2-1.5,0.3-1.8,0.4-1.8
				c0.1,0,0.1,0.5,0,0.9c0,0.2,0,0.9-0.2,2c0,0.2,0,0.2,0,0.3c-0.1,0.8,0,1.4,0,1.9c0.2,1.9,0,1.7,0.2,2.4c0.2,0.7,0.5,0.8,0.5,1.5
				c0.1,0.8-0.1,1.4-0.2,1.4c0,0,0.1-0.5-0.1-1.2c0-0.2-0.1-0.3-0.2-0.7c-0.2-0.7-0.4-1.2-0.4-1.3c-0.2-0.5-0.2-0.8-0.3-2.5
				c-0.1-1-0.2-1.9-0.2-2.9c0-0.6-0.1-1.1-0.1-1.5c-0.1,0.4-0.2,1-0.2,1.7c0,0.4,0,0.7,0,1.9c0.1,1.5,0.1,2.3,0.2,2.9
				c0.1,0.5,0.2,1,0.4,2c0.1,0.6,0.9,3.7,1.1,3.7c0.1,0,0-0.8,0.2-0.9c0.2,0,0.4,0.4,0.5,0.5c0.5,1,0.6,2.2,0.3,2.3
				c-0.2,0.1-0.7-0.9-0.8-0.8c-0.1,0.1,0.1,0.7,0.3,1.6c0.6,2,0.7,2.7,0.7,3c0.1,0.7,0.1,1.8,0,1.9c-0.3,0.1-1.1-3.3-1.3-3.3
				c-0.1,0,0.1,0.5,0.3,2.2c0.2,1.1,0.2,1.6,0.5,2.4c0.2,0.5,0.4,0.8,0.4,0.8c0.4,0.7,0.6,0.7,0.7,1.1c0.2,0.4,0.1,0.7,0,1.7
				c-0.1,0.5-0.1,1-0.1,2c0,0.8,0,2.1,0.2,2.1c0.1,0,0.3-0.7,0.4-0.7c0.2,0,0.2,1.1,0.4,2.5c0.2,1.7,0.5,2.7,0.5,2.7
				c-0.2,0-1.1-3.2-1.3-3.1c-0.2,0,0.2,2.1,0.5,3.4c0.3,1.4,0.7,2.6,0.9,3.4c0.3-0.4,0.5-1,0.6-1.7c0-0.3,0-0.6,0-0.6
				c0,0,0.3,1.1,0.5,2.4c0.1,0.8,0.4,2.4,0.4,4.4c0,1.3-0.2,1.4-0.2,1.4c-0.2,0-0.4-0.5-0.6-1c0,0.8,0.2,1.5,0.3,1.9
				c0.1,0.5,0.2,0.7,0.4,1.4c0.1,0.2,0.3,1,0.4,1.6c0.2,1.6,0.1,2,0.2,3.3c0.1,0.4,0.2,1.1,0.5,1.9c0-1.1,0.1-2.1,0.1-3
				c0-0.2,0-0.8,0.3-1.5c0.1-0.2,0.3-0.7,0.5-0.6c0.2,0,0.2,0.6,0.3,1.8c0,0.4,0.1,0.9,0,0.9c-0.1,0-0.4-2.1-0.6-2.1
				c-0.2,0-0.2,1.4-0.2,2.4c0,1.2,0.2,2.2,0.3,2.9c0.3,0.6,0.5,0.9,0.5,0.9c0,0-0.4-0.3-1-1c0,0.2,0.3,2.2,0.8,3.6
				c0.2,0.6,0.3,0.9,0.6,1.4c0.2,0.4,0.4,0.6,0.4,0.7c-0.1,0-0.5-0.3-0.8-0.6c-0.3-0.3-0.7-1-0.7-2.2c-0.2,1.2-0.3,3.3,0.6,5.6
				c0.5,1.4,1.2,2.3,2,3.5c2.2,3.1,4.6,4.8,4.5,4.9c-0.1,0.1-1.4-0.7-2.8-2.1c-2.7-2.7-3.5-5.5-3.7-5.4c-0.2,0.1,0.1,3.4,2.3,6.2
				c0.4,0.5,2.8,3.5,7,4.3c1,0.2,2.7,0,6.1-0.5c4.3-0.5,6.5-1.2,7.1-1.4c1.4-0.4,2.3-0.8,3.9-1.4c3.4-1.3,5.6-2.4,9.9-4.5
				c1-0.5,3.5-1.7,6.1-2.9c9.5-4.5,12.9-5.7,15.2-6.1c1.5-0.3,2.2-0.4,3.5-0.8c0.6-0.1,3.2-0.8,3.1-0.9c0-0.2-4.1,0.7-4.2,0.3
				c-0.1-0.4,4.8-2.6,9.5-4c1.1-0.3,2.5-0.9,4.4-1.8c1.2-0.6,2.3-1.1,3.8-2c2-1.2,2.6-1.9,4.6-2.9c0.8-0.4,1.6-0.7,2-0.9
				c-1.6,1-3.2,2.1-4.8,3.1c0.6-0.2,1.6-0.6,2.7-1.1c2.3-1.1,3.9-2.1,4.5-2.4c4.3-2.6,11.5-5.8,17.6-8c2.1-0.8,1.8-0.5,3.7-1.2
				c6.8-2.5,7-3.7,11.4-4.8c1.7-0.4,3.4-1.2,5.2-1.6c0.7-0.1,2.1-0.4,2.9-1.5c0.3-0.4,0.5-0.8,0.6-1.1c-0.1,0.1-0.2,0.2-0.4,0.3
				c-0.9,0.5-1.7,0.7-2.8,1.1c-1,0.4-1.6,0.6-1.8,0.6c-0.4,0.1-3.5,1.2-3.6,1c-0.1-0.2,2.2-1.6,4.8-2.3c0.6-0.2,1.7-0.4,3.2-1
				c0.3-0.1,0.7-0.3,1.2-0.5c0.9-0.5,1.1-0.8,1.8-1.3c1.2-0.8,2.4-1.2,2.8-1.3c0.8-0.2,1-0.2,1.8-0.4c0.1,0,0.8-0.3,1.5-0.8
				c0.6-0.4,2.4-1.6,2.7-3.6C336.5,224.5,334.9,222.9,334.7,222.7z"/>
			<path d="M314.5,200.1c-0.1,0,0,0.8,0.5,1.4c0.4,0.4,0.8,0.3,1.4,0.9c0.3,0.3,0.5,0.6,0.5,0.6c0.1,0,0-0.4-0.2-0.8
				c-0.4-0.6-0.9-0.6-1.5-1.2C314.7,200.6,314.6,200.1,314.5,200.1z"/>
			<path d="M320.3,207.3c0.1-0.1-0.1-0.7-0.3-1.1c-0.7-1.3-2-2.1-2.1-1.9c-0.1,0.1,0.4,0.7,1.3,1.8
				C320.1,207.4,320.2,207.4,320.3,207.3z"/>
			<path d="M312.7,194.4c0.1,0,0-0.5-0.1-0.8c-0.2-0.4-0.6-0.7-0.7-0.7C311.7,193,312.5,194.4,312.7,194.4z"/>
			<path d="M327.6,229.7c-0.5,0.4-0.9,0.6-1.5,1c-0.9,0.6-1,0.6-1.2,0.8c-0.1,0.1-0.2,0.3-0.5,0.4c-0.3,0.1-0.5,0.1-0.7,0.1
				c0.1,0.1,0.3,0.3,0.6,0.3c0.3,0,0.5-0.2,0.8-0.4c0.2-0.2,0.4-0.4,0.4-0.5c0.6-0.9,2-0.4,2.9-1.3c0.3-0.3,0.3-0.5,0.8-1.1
				c0.3-0.3,0.5-0.5,0.7-0.7c-0.3,0.1-0.7,0.2-1.1,0.5C328.4,229.1,328.3,229.3,327.6,229.7z"/>
			<path d="M330.3,227.7c0,0,0,0,0.6-0.2c0.3-0.1,0.4-0.1,0.4-0.2c0.1-0.1,0.1-0.3,0.1-0.4C331.1,226.7,330.2,227.6,330.3,227.7z"/>
			<path d="M334.9,221.2c0.1-0.1-1.7-3.5-4.6-6.7c-1.3-1.4-2.7-2.7-2.8-2.6c-0.1,0.1,1,1.4,3.4,4.4
				C334.2,220.2,334.8,221.2,334.9,221.2z"/>
			<path d="M280.7,255.4c0,0.1,1.3-0.1,2.4-0.5c0.7-0.3,1.5-0.8,3.2-2c0.3-0.2,0.8-0.5,1.4-1.1c0.1-0.1,0.8-0.8,0.7-0.9
				c-0.1-0.1-1.6,1.4-4,2.7C282.3,254.8,280.6,255.3,280.7,255.4z"/>
			<path d="M194.6,252.1c0.1,0,0.2-0.4,0.2-0.8c0-0.7-0.2-1.2-0.4-1.7c-0.5-1.4-0.3-2.3-0.5-2.3c-0.1,0-0.5,1.1-0.1,2.2
				c0.1,0.5,0.3,0.6,0.5,1.4C194.5,251.6,194.5,252.1,194.6,252.1z"/>
			<path d="M287.4,163.2c0.5,1.1,0.5,1.1,0.5,1.1c0,0-0.1-0.5-0.1-0.7c-0.4-1.3-1.1-2.4-1.2-2.4
				C286.6,161.2,286.9,161.9,287.4,163.2z"/>
			<path d="M271,142.5c0.1,0,0.2-0.7,0-1.3c-0.2-0.7-0.8-1.1-0.9-1.2C270.6,142.1,270.9,142.6,271,142.5z"/>
			<path d="M190.3,225.8c0,0,0-0.2-0.1-1.1c-0.2-1.3-0.3-2-0.4-2c-0.1,0-0.2,1,0,2C190,225.3,190.2,225.8,190.3,225.8z"/>
		</g>
		<g id="Layer_6">
			<path class="st0" d="M209.1,266.7c0.1,0.5,0.3,1,0.7,1.3c1,0.7,2.6,0.1,3.3-0.1c2.6-1,47.1-19.2,108.1-44.1
				c0.7-0.2,1.4-0.5,1.6-1.1c0.3-0.9-0.9-2-1.1-2.2c-1.9-1.9-26.4-32.6-61.3-76.5c-0.2-0.2-0.6-0.5-1-0.7c-1.3-0.6-2.6-0.1-2.9-0.1
				c-1.8,0.5-29.2,6.9-67,15.6C196,194.8,202.5,230.8,209.1,266.7z"/>
		</g>
		<g>
			<g>
				<path class="st4" d="M219.5,202.7c1.3,0.8,3.4,1.9,5.9,3.1c0.8,0.4,3.4,1.6,9.4,3.7c5.5,2,9.5,3.2,13.5,5c2.4,1.1,3.6,1.9,4,2.2
					c1.2,0.8,1.8,1.4,3.3,2.5c1.2,0.8,2.2,1.5,2.8,1.8c0.2-0.4,0.4-1,0.6-1.9c0.2-1.2,0.2-2.2,0.1-2.4c-0.2-3.1,2.7-11.7,2.4-11.8
					c-0.2-0.1-1.8,3.3-2.4,7.1c-0.2,1.4-0.5,3.2-0.4,4.8c0,0.2,0,0.9-0.1,1.8c-0.1,0.8-0.2,1.5-0.3,1.9c-0.5-0.3-1.3-0.7-2.2-1.3
					c-1.1-0.8-1.9-1.5-2-1.7c-3.1-2.9-15.2-7.2-15.2-7.2c-6.8-2.5-7.6-2.5-11.8-4.3C223.9,204.7,221.2,203.5,219.5,202.7z"/>
				<path class="st4" d="M221.3,202.8c5.2,2.4,9.6,4,12.6,5.1c3.1,1.1,4.8,1.5,7.2,2.4c1,0.3,1.6,0.6,2.2,0.8c0,0,0.5,0.2,0.9,0.4
					c5,2.1,9.3,5,9.3,5c1.9,1.3,3.1,2.3,3.7,2.8c0.3,0.3,0.6,0.5,0.8,0.7c0-0.2,0.1-0.5,0.1-0.8c0-0.2,0.1-1,0.1-1.7
					c0-0.7-0.1-0.8-0.1-1.5c0-0.8,0.1-1.4,0.1-1.9c0.4-2.9,1.5-5.3,1.6-5.5c0.3-0.6,0.6-1.2,0.6-1.3c-0.1,0-0.6,0.7-1.1,1.5
					c-0.6,1-1,2.3-1.7,4.8c0,0-0.4,1.3-0.2,2.2c0,0,0,0.1,0,0.1c0,0.2,0.1,0.5,0.1,1c0.1,0.9,0,1.7,0,2.2c-0.8-0.7-1.9-1.6-3.3-2.6
					c-0.9-0.7-2.6-1.9-4.8-3.2c-1.8-1-3.4-1.7-4.4-2.1c-4.6-1.9-8.3-2.7-11.9-3.9C229.9,205.9,225.8,204.5,221.3,202.8z"/>
			</g>
			<path d="M274,182.5c-1.7-5.8-11.6-7-12.8-7.2c-7.2-0.9-13.8,2.3-16.4,3.9c-0.6,0.3-1.1,0.5-1.5,0.8c0.2-1.2,0.6-3.1,1.8-4.9
				c2.3-3.8,5.9-5.3,7.2-5.7c-5.5,1.4-11.1,2.8-16.9,4.1c-5.6,1.3-11.1,2.4-16.4,3.5c3.2,0,8.6,0.4,14.1,3.6c1.6,0.9,2.9,1.9,4,2.9
				c-0.3-0.1-1.2-0.2-2.4-0.4c0,0,0,0,0,0c-2.1-0.3-5-0.5-8.3,0c-2.5,0.1-7.2,0.9-11.2,3.9c-1.5,1.1-4,3.1-4.2,6.2
				c-0.1,2.2,1.1,3.9,1.8,4.7c-0.6-1-1.3-2.6-1.2-4.5c0.2-2.6,2.1-4.6,4.1-6c-1.7,1.2-3.1,2.9-3.3,4.8c-0.1,0.8,0,1.4,0.1,1.9
				c0.3-1.1,0.9-2.8,2.2-4.4c1.1-1.4,2.4-2.3,3.8-3.1c-0.5,0.4-1,0.9-1.4,1.4c-1.2,1.3-3.3,3.7-3,6.5c0.6,5.1,9,8.1,17.7,11.1
				c8.8,3,14.7,3.6,22.7,9.2c0.9,0.6,1.5,1.1,2,1.5c0-0.7,0.1-2.1,0.5-3.7c1.5-6.8,5.6-9.6,10.5-18.3c0.6-1.1,1.6-2.8,2.6-5.1
				c-0.2,0.5-0.5,1.3-0.9,2.3c-1.2,2.8-2.3,4.4-4.4,7.7c-2.2,3.5-3.3,5.2-3.7,6.3c-1.2,3.2-1.5,6.7-1.4,6.7c0,0,0.1-0.1,0.2-0.7
				c0.6-1.7,0.8-2.8,1.1-3.4c0.2-0.5,0.4-1.1,1.3-2.8c1.6-2.9,3.5-5.7,5.1-8.3c0,0,3.2-5.3,4.6-10c0.3-1.1,0.3-2.1,0.3-2.1
				c0-0.3,0-0.6,0-0.7c0.1-0.6,0-1.2-0.2-1.8c-1.5-4.3-8.4-5.3-11-5.7c-4.3-0.7-8.2-0.1-11.4,0.8c2-0.6,4.3-1.2,7-1.4
				c1.3-0.1,4.3-0.2,8,0.7c3.8,0.9,5.4,2.2,5.7,2.6c0.8,0.6,2.2,1.9,2.8,4c0.4,1.6,0,2.9-0.6,5.2c-1,3.3-2.5,5.7-3.9,7.9
				c-1.2,1.8-1.8,2.7-2.5,3.8c-1.2,1.7-1.6,2.2-2.3,3.5c-1.2,2.2-2.8,5.5-3.8,10.2c0.6-1.9,1.6-4.8,3.3-8.1c0.7-1.3,1.1-2,5.1-8.2
				c2.8-4.3,4.2-6.6,4.8-8.7C274,186.4,274.6,184.5,274,182.5z"/>
		</g>
	</g>
	<g id="Card1">
		<g>
			<path d="M255.6,119.3c-0.1-0.6-0.3-1.7-1.2-2.9c0.3,0.7,0.8,2,0.7,3.6c-0.1,1.8-0.9,3.1-1.3,3.9c-1.6,2.7-4.3,4-4.4,3.8
				c-0.1-0.1,0.3-0.4,1-1.4c0.4-0.5,0.7-1,1-1.7c0.2-0.5,0.5-1.1,0.6-2.1c-0.7,0.7-0.8,0.9-0.9,0.8c-0.1-0.1,0.3-0.6,0.7-1.5
				c0.4-1,0.4-1.6,0.5-1.6c0.1,0,0.2,0.6,0.1,1.1c-0.1,0.5-0.2,0.8-0.1,0.9c0.1,0.1,0.5-0.2,0.7-0.6c0.2-0.3,0.2-0.6,0.2-0.9
				c0-0.4-0.1-0.4-0.1-0.7c0-0.6,0.2-0.9,0.1-1c-0.1,0-0.2,0.2-0.3,0.2c-0.1,0-0.2-0.3-0.2-1.2c0.1,0.1,0.2,0.2,0.3,0.4
				c0.1,0.2,0.1,0.3,0.2,0.3c0.1,0,0-0.3,0-0.4c-0.1-0.6-0.2-0.8-0.1-0.9c0.1-0.1,0.3,0,0.5,0c0.8,0.5,0.4,2.4,0.6,2.5
				c0.1,0,0.4-0.7,0.4-1.5c0-0.1-0.1-1.1-0.9-1.8c-0.3-0.3-0.4-0.2-1-0.6c-0.2-0.2-0.3-0.2-1-0.8c-0.6-0.5-0.8-0.7-1-0.8
				c-0.3-0.2-0.3-0.2-1.2-0.6c-0.7-0.4-0.9-0.5-1.3-0.6c-0.3-0.1-0.9-0.1-0.9,0c-0.1,0.2,1,0.6,2.3,1.5c1.1,0.7,2.3,1.7,2.3,1.8
				c-0.1,0.1-1.8-0.8-3.2-1.7c-0.9-0.6-1.4-0.9-1.8-1.4c-0.4-0.4-0.5-0.7-0.9-0.8c-0.6-0.2-0.9,0.2-1.6-0.1c-0.1,0-0.1,0-1-0.5
				c-0.8-0.4-0.8-0.4-0.9-0.5c-0.4-0.1-0.7-0.1-1.3-0.2c-0.8,0-1.1,0.1-1.3,0.2c-0.1,0.1-0.4,0.2-0.4,0.3c0,0.2,0.8,0,2.1,0.2
				c0.7,0.1,1.1,0.3,1.4,0.4c0.3,0.1,0.4,0.2,0.8,0.4c1.1,0.6,1.7,0.7,1.6,0.8c0,0.1-1.1,0-2.1-0.4c-0.4-0.2-0.4-0.2-0.8-0.3
				c-0.8-0.3-1.3-0.3-2.7-0.5c-1.7-0.2-2.1-0.3-2.1-0.5c0-0.3,0.8-0.6,0.8-0.8c-0.1-0.2-1.4-0.2-2.6-0.1c-1,0.1-1.7,0.1-1.8-0.2
				c-0.1-0.2,0.2-0.4,0.1-0.6c-0.2-0.5-1.5-0.3-3.4-0.8c-0.8-0.2-0.6-0.3-1.4-0.5c-1.5-0.5-1.9-0.2-3.6-0.6c-1-0.2-0.9-0.4-1.6-0.4
				c-1.1-0.1-1.5,0.2-2.4-0.1c-0.6-0.2-0.5-0.4-1.2-0.8c-0.7-0.4-1.4-0.4-2.6-0.4c-1.3-0.1-1.4,0.1-2.1-0.1
				c-0.8-0.2-1.2-0.4-1.8-0.7c-1.2-0.5-2-0.5-3.3-0.6c-3.2-0.3-3.2-1-6.8-1.5c-2.3-0.3-2.6,0-4-0.5c-1.8-0.5-1.9-1.1-3.5-1.4
				c-0.8-0.1-1.8-0.1-3.9,0c-1.3,0-2,0.1-2.9-0.2c-0.7-0.3-0.6-0.4-1.6-1c-0.3-0.2-1.6-0.9-3.5-1.2c-1.2-0.2-1.1,0-1.9-0.2
				c-1.5-0.4-1.5-1.1-2.8-1.4c-1-0.2-1.6,0.1-2.2-0.5c-0.3-0.2-0.2-0.4-0.6-0.6c-0.6-0.4-1.2-0.4-1.8-0.5c-0.8,0-1.7-0.2-2.5-0.3
				c-3.1-0.2-3.3-0.3-3.7-0.4c-1-0.3-1.1-0.5-2.3-1c-1.4-0.5-2.5-0.8-3.5-1c-2.7-0.5-5.2-0.6-6.9-0.5c1.1,0.2,2.4,0.5,2.4,0.7
				c0,0.2-0.7,0.2-1.6,0.4c-0.6,0.1-2.5,0.6-4.4,1.9c-0.1,0.1,0,0-2,2c-0.8,0.7-1.1,1-1.5,1.5c-0.6,0.7-1,1.4-1.2,1.8
				c-0.5,0.3-1.1,0.5-1.2,0.3c-0.2-0.2,0.2-0.6,0-0.7c-0.2-0.2-1.4,0.3-1.9,1.3c-0.2,0.4-0.2,0.8-0.6,1c-0.3,0.1-0.4-0.1-0.8,0
				c-0.3,0.1-0.4,0.3-0.8,0.8c-0.2,0.3-0.5,0.7-0.9,1c-0.3,0.3-0.7,0.6-1.3,0.8c-0.4,0.1-0.6,0-1,0c-0.4,0-0.6,0.1-1.8,0.9
				c-1.2,0.8-1.8,1.2-2.3,1.7c-0.5,0.6-0.5,0.7-0.9,1c-0.6,0.5-1,0.5-1.5,1.1c-0.3,0.4-0.2,0.4-0.5,0.8c-0.3,0.4-0.6,0.5-1.4,1
				c-1,0.6-0.9,0.6-1.5,0.9c-0.7,0.4-0.9,0.4-1.4,0.7c-0.4,0.2-0.8,0.5-1.7,1.1c-2.4,1.8-2.3,2.1-3.5,2.7c-0.8,0.4-1.2,0.5-2,1.1
				c-0.6,0.4-0.7,0.7-1.3,1.2c-0.8,0.6-1.3,0.8-1.9,1.2c-1.4,0.8-1.3,1.2-2.9,2.3c-1.8,1.3-2.1,0.9-3.7,2.1
				c-1.5,1.1-2.5,2.4-2.5,2.5c0.1,0.1,1.7-1.1,2.6-1.8c1-0.8,1.3-1.1,1.9-1.3c0.5-0.1,0.8-0.1,1.4-0.4c0.5-0.2,0.6-0.4,1-0.7
				c1.1-0.7,2.3-1,2.4-0.8c0,0.1-0.4,0.3-0.9,0.7c-1,0.7-1.2,0.6-1.6,1c-0.5,0.5-0.5,0.7-0.9,1c-0.3,0.1-0.4,0-1,0.2
				c-0.6,0.2-0.8,0.4-0.9,0.5c-0.1,0.2-0.1,0.2-0.2,0.3c-0.3,0.3-0.7,0.2-1,0.3c-0.4,0.1-0.5,0.4-1,0.9c-0.2,0.3-0.6,0.6-1.4,1.3
				c-0.9,0.8-1.3,1.2-1.7,1.4c-0.6,0.4-0.9,0.3-1.5,0.8c-0.3,0.2-0.3,0.3-0.9,0.8c-0.2,0.2-0.7,0.6-1.2,1c-0.4,0.3-0.9,0.7-2,1.5
				c-0.3,0.2-0.5,0.3-0.7,0.5c-1.6,1.2-3,2.3-4.3,3.3c-2.4,1.8-2.3,1.4-4.5,3.1c-1.5,1.2-1.5,1.3-3.1,2.5c-2,1.5-2.1,1.4-3.6,2.5
				c-1.8,1.4-1.9,1.8-3.6,3.1c-0.8,0.6-1.3,1-3.1,2.1c-6.1,3.8-7.4,4.7-9.1,6.2c-1.3,1.1-0.8,0.9-2.1,2c-2.8,2.4-6.8,5.1-8.4,6.4
				c-0.5,0.4-0.7,0.5-0.9,0.8c-0.4,0.5-0.5,0.9-1,1.2c-0.2,0.1-0.2,0.1-0.5,0.2c-0.5,0.3-0.6,0.5-1.3,1.2c-0.3,0.3-0.4,0.4-0.6,0.5
				c-0.4,0.3-0.5,0.3-0.8,0.5c-0.1,0.1-0.2,0.2-0.5,0.5c-0.4,0.4-0.5,0.4-0.6,0.6c-0.2,0.1-0.4,0.3-0.6,0.5
				c-0.4,0.2-0.5,0.2-0.9,0.4c-0.1,0-0.5,0.2-1,0.6c-0.5,0.3-0.8,0.7-1,0.9c-0.5,0.6-0.4,0.7-0.8,1.1c-0.3,0.3-0.7,0.6-1.4,0.8
				c-0.3,0.1-0.4,0.1-0.6,0.1c-0.9,0.2-1.4,0.8-1.7,1.1c-1,1.1-2.3,1.8-3.4,2.9c-2.5,2.4-3.2,2-7.3,5.4c-2.5,2-3.3,3-3.8,4.2
				c-0.7,1.4-1,2.8-1.1,3.3c-0.3,1.3-0.3,2.5-0.3,3.3c-0.1,0.8-0.1,1.9,0.2,3.2c0.3,1.2,0.8,2.1,1.1,2.7c0.5,0.8,0.9,1.3,1.5,1.9
				c0.6,0.7,1.6,1.8,3.2,2.8c1.1,0.7,1.4,0.6,2.4,1.4c0.9,0.7,1.5,1.4,1.9,1.9c-0.3-0.4-0.7-1-1.2-1.6c-1.6-1.8-2.5-1.8-4.6-3.5
				c-2.6-2.2-3.1-3.8-3.2-4.3c-0.1-0.5-0.2-1-0.2-1.3c0.3,0.6,0.6,1.1,0.8,1.4c0.3,0.3,0.5,0.4,0.8,0.9c0.3,0.4,0.3,0.5,0.6,0.9
				c0.4,0.5,0.9,0.9,0.9,0.9c0.1-0.1-0.5-1-0.4-1.1c0.1-0.1,0.3,0.3,0.9,0.6c0.4,0.2,0.6,0.2,0.9,0.5c0.1,0.1,0.1,0.2,0.3,0.4
				c0.4,0.7,1.2,1.1,1.2,1c0,0-0.2-0.2-0.5-0.7c-0.1-0.2-0.2-0.3-0.1-0.3c0.1,0,0.5,0.5,1.3,1.1c0,0,0.6,0.5,1.4,1
				c1.6,1,2.9,1.3,2.8,1.4c0,0.1-1.7-0.3-1.8-0.1c0,0.1,0.6,0.4,1.6,1c1.1,0.7,1.1,1,2.4,1.8c0.8,0.6,2,1.3,2.1,1.2
				c0.2-0.2-2.3-2.2-2-2.5c0.1-0.1,0.9,0.3,1.1,0.4c1.4,0.8,1.7,1.5,3.1,2.6c0.4,0.3,0.1,0.1,2,1.4c1.4,1,2.3,1.6,2.3,1.7
				c0,0.1-0.9-0.3-1.5-0.6c-2.8-1.4-4.4-3.1-4.5-3c-0.1,0.1,0.7,1.3,1.9,2.2c1,0.7,1.4,0.7,2.7,1.5c1.5,0.9,2.6,2.1,2.5,2.2
				c-0.1,0.2-4.2-2.7-4.3-2.5c-0.1,0.1,1.8,2.2,3.5,2.9c0.1,0,1,0.4,1.2,1c0.1,0.2,0,0.5,0,0.5c0,0.4-0.2,0.6-0.2,0.6
				c0.1,0,0.4-0.1,0.6-0.5c0.3-0.7-0.6-1.5-0.4-1.7c0.2-0.2,0.9,0.2,1.3,0.4c2.8,1.5,3.6,1.8,3.6,1.9c-0.1,0.2-2.9-1-3-0.8
				c0,0.1,0.6,0.4,1.9,1.2c0.5,0.3,0.4,0.2,1.2,0.8c1.4,0.9,1.9,1.2,1.9,1.3c-0.1,0.2-1.3-0.3-1.4-0.1c-0.1,0.1,0.6,0.5,1.9,1.4
				c1,0.7,1.3,1,1.5,1.1c0.6,0.5,0.6,0.7,1.1,1.2c1.1,1.1,2.3,1.7,2.3,1.6c0-0.1-0.5-0.6-1-1c-0.4-0.3-0.6-0.4-0.6-0.6
				c-0.1-0.3,0.1-0.7,0.3-0.9c0.2,0.1,0.4,0.3,0.7,0.5c0.4,0.3,0.6,0.6,0.9,0.8c1,0.9,1.7,1,1.8,1.5c0,0,0,0.2-0.1,0.4
				c-0.2,0.2-0.8-0.1-0.8,0c-0.1,0.2,1.3,1.1,1.5,1.3c0.6,0.4,0.6,0.4,1,0.6c0.9,0.6,1.2,1,1.9,1.6c0.4,0.4,1.1,0.9,2.1,1.3
				c-0.1-0.1-1.8-1.5-2.4-2.1c-0.1-0.1-0.3-0.3-0.2-0.4c0-0.2,0.2-0.3,0.4-0.3c0.3,0,0.5,0.3,0.8,0.7c0.2,0.3,0.7,0.7,1.7,1.6
				c0.5,0.5,0.7,0.5,1.4,1.1c1.9,1.5,1.8,1.7,3,2.6c0.9,0.6,1,0.5,2.1,1.3c0.6,0.4,0.8,0.6,1.8,1.3c0.7,0.5,1.2,0.7,1.1,0.8
				c0,0.1-0.6-0.1-0.7-0.1c-0.4-0.1-1-0.4-1.9-0.9c1.8,1.3,2.2,1.8,2.2,2c-0.1,0.1-0.7-0.1-1.2-0.3c-1.8-0.7-3-1.6-3.5-2
				c-1.7-1.3-2.7-2-3.9-2.7c-1.6-1-2.1-1.1-3.9-2.2c-1.1-0.7-1.9-1.3-2.5-1.7c0.3,0.3,0.8,0.8,1.4,1.2c1.1,0.8,2,1.2,2.7,1.6
				c1.5,0.8,2.9,1.9,5.7,4.2c0.5,0.4,1,0.8,1.9,1.7c0.8,0.8,1,1,1,1c-0.1,0.2-2.4-1.2-2.5-1c-0.1,0.1,0.8,1.3,2,1.6
				c0.2,0.1,0.6,0.1,1,0.4c0.3,0.2,0.5,0.5,0.6,0.7c0.4,0.6,0.9,0.8,1.6,1.2c0.3,0.2,1.2,0.8,3,2c1.5,1.1,1.3,1.1,2.6,1.9
				c2.2,1.5,3.1,1.7,5.4,3.3c0.9,0.6,1.3,0.9,1.4,1c1,0.8,1.4,1.5,1.8,1.3c0.1,0,0.3-0.2,0.4-0.5c0.2,0.1,0.4,0.3,0.8,0.5
				c0.9,0.6,1.4,1.1,1.7,1.4c0.8,0.7,0.8,0.4,2.8,1.6c0.8,0.5,1.4,0.9,2.4,1.6c1.1,0.7,1.9,1.3,2.2,1.5c0.3,0.2,3.2,2.3,6.2,4.2
				c1.8,1.2,3.2,2.1,5.1,3.2c1.4,0.8,2.6,1.4,3.5,1.8c1.6,1,3.1,1.4,4.1,1.6c0.4,0.1,4.6,1,8.9-0.8c0.8-0.3,1.6-0.7,3-1.5
				c1.5-0.8,2.7-1.4,3.5-1.9c-1.1,0.1-1.4,0-1.4,0c0-0.2,1-0.4,2-1.2c0.4-0.3,0.6-0.6,1.1-1.3c0.5-0.7,0.8-1.2,1.6-2.5
				c0.3-0.5,0.6-1,1.2-1.9c0.8-1.2,1.2-1.9,1.9-2.8c0.3-0.4,0.8-1,0.9-1c0.2,0.1-1.9,3.5-1.8,3.6c0.1,0,0.7-1,2.1-2.7
				c1-1.3,1.2-1.3,2.5-2.9c1-1.2,1.3-1.7,1.4-1.6c0.1,0.1-0.1,0.7-1.5,3.5c1.9-2.5,3-4.1,3.5-4.8c0.1-0.2,0.4-0.6,0.8-1
				c0.5-0.5,0.9-0.6,1.2-0.9c0.8-0.6,1-1.4,1.2-1.9c0.2-0.5,1.3-2.1,3.4-5.1c2-2.9,3-4.3,4.2-5.7c0.5-0.6,1.5-1.7,2.6-3.4
				c0.5-0.8,0.3-0.7,0.9-1.5c1.4-2.2,2.3-2.9,3.3-4.4c0.1-0.2,0.4-0.6,0.9-1.2c0.3-0.4,0.6-0.7,0.7-0.7c1.1-1,3.3-4.4,5.4-7.1
				c2-2.5,2.7-2.8,4-4.9c0.7-1.1,0.9-1.7,1.4-2.7c0.5-1,1.4-2.6,4.7-6.7c1.4-1.8,4.2-5.3,7.6-8.8c1.5-1.6,2.1-2.3,3.4-3.7
				c0.6-0.7,1.1-1.4,2.2-2.8c0.8-1.1,1.1-1.5,1.4-2.1c0.4-1,0.3-1.3,0.7-1.9c0.5-0.8,1.1-1,2-1.6c0.4-0.3,1-1.1,2.2-2.6
				c2.8-3.4,2-3,3-4c0.6-0.6,1.2-1.1,1.3-1.9c0.1-0.6-0.1-0.8,0-1.7c0.1-0.4,0.2-1,0.6-1.4c0.4-0.5,1-0.8,1.1-0.7
				c0.2,0.2-1.2,2-1.1,2.1c0.1,0.1,1.1-1,1.4-1.3c0.8-0.9,1.2-1.3,1.7-2c0.8-1.1,0.6-1.4,1.2-2.1c0.6-0.7,1.1-0.8,1.8-1.3
				c1.1-0.8,1.6-1.6,2.5-2.8c1.3-1.8,2.9-3.6,4.3-5.4c2.1-2.7,2.8-3.3,4.4-5.3c2.9-3.5,7.7-11,12.6-18c0.6-0.9,1.8-2.6,2-2.5
				c0.1,0.1-0.3,0.9-0.5,1.3c-0.6,1.2-1.4,2-1.9,2.5c0.8-0.5,1.4-1,1.7-1.4c0.5-0.6,0.6-1,1.1-1.4c0.7-0.5,1.4-0.6,1.4-0.7
				c0-0.1-0.8,0.1-0.9-0.2c-0.1-0.2,0.3-0.6,0.6-0.8c1.3-1.2,1-1.5,2.1-2.5c0.8-0.7,0.9-0.5,2-1.4c0,0,1-0.7,1.7-1.6
				C253.8,125,256,122.5,255.6,119.3z M36.3,189c-0.9,0.9-1.1,1.1-1.6,1.5c0.2-0.1,0.4-0.1,0.7-0.2c0.3-0.1,0.4-0.1,0.5-0.2
				c0.7-0.3,1-0.9,1.1-0.9c0.1,0.1-0.1,0.8-0.7,1.3c-0.1,0.1-0.5,0.3-1.1,0.6c-0.4,0.2-0.5,0.2-0.7,0.3c-0.1,0-0.4,0.3-0.6,0.7
				c-0.2,0.4-0.3,0.8-0.3,1c-0.1,0.5,0,0.6-0.1,0.7c-0.1,0-0.6-0.8-0.3-1.6c0,0,0-0.1,0-0.1c-0.3,0.4-0.6,0.8-0.9,1.3
				c-1.1,2.1-0.7,3.9-1,3.9c-0.3,0-1.1-2.1-0.4-3.9c0.4-1,1.1-1.6,2.3-2.6c4.2-3.4,5.5-4.6,5.6-4.5C39,186.4,37.9,187.5,36.3,189z
				 M39.3,188.2c-0.3,0.5-0.9,0.8-1,0.6c-0.1-0.1,0.1-0.4,0.6-1.2c0.4-0.7,0.6-1,0.7-1C39.7,186.7,39.8,187.6,39.3,188.2z
				 M42.6,181.2c-1,1.4-1.5,2.1-1.7,2.3c-0.7,0.7-1.6,1.3-3.3,2.5c-1.1,0.7-1.3,0.8-2.1,1.4c-0.9,0.7-1.5,1.2-1.9,1.6
				c-0.5,0.5-1.2,1.1-1.9,1.9c0.1-0.5,0.3-0.9,0.4-1.2c0.1-0.3,0.3-0.5,1.2-1.5c0.4-0.5,0.7-0.7,0.9-0.9c0.9-0.9,1.6-1.3,2.6-2
				c0,0,1.4-0.9,2.6-1.8c2.5-1.8,3.9-3.5,4-3.4C43.4,180.1,43.3,180.3,42.6,181.2z M54.7,217.2c-0.3-0.2-0.3-0.2-0.9-0.8
				c-0.7-0.6-1.1-0.8-1.1-0.9c0-0.1,0.6,0.2,1.1,0.4c0.6,0.4,0.7,0.6,1.5,1c0.8,0.5,1.2,0.6,1.2,0.7
				C56.4,217.8,55.5,217.7,54.7,217.2z M163.2,94c0.1,0,0.4,0.1,0.8,0.2c0.4,0.2,0.3,0.2,0.6,0.3c0.2,0,0.4,0,0.8,0
				c0.2,0,0.4,0,0.6,0.1c0.1,0,0.1,0.1,0.1,0.2c0,0.1-0.2,0-0.5,0c-0.2,0-0.3,0.1-0.6,0.1c-0.1,0-0.5,0.1-1,0
				c-0.4-0.1-0.7-0.2-0.7-0.3c0-0.1,0.3,0,0.4-0.1c0-0.1-0.2-0.1-0.3-0.2c-0.7-0.3-1-0.3-1-0.4C162.2,93.9,162.7,93.9,163.2,94z
				 M154.4,96c-0.6,0.1-1.1,0.5-1.3,0.7c-0.5,0.5-0.6,0.9-0.7,0.9c-0.1,0-0.1-0.4,0-0.8c0.2-0.4,0.4-0.5,0.9-0.8
				c1.7-1,2.1-1.1,2.5-1.1c0.4,0,0.7,0,0.7,0.1c0,0-0.4,0-0.7,0.2c-0.3,0.2-0.3,0.5-0.6,0.7C155,96.1,154.9,95.9,154.4,96z
				 M159.2,98.5c-0.3,0-0.5,0-0.8,0.1c-0.2,0.1-0.3,0.2-0.4,0.3c-0.3,0.4-0.6,0.4-1.1,0.8c-1,0.7-1.6,1.4-1.6,1.3
				c-0.1-0.1,0.4-0.5,0.9-1.5c0.4-0.8,0.4-0.9,0.6-1.1c1-1,3.6-0.2,3.6-0.1C160.5,98.5,159.7,98.5,159.2,98.5z M169.4,98
				c0-0.1,0.6-0.2,0.6-0.3c0,0-0.2,0-0.7,0c-0.6,0-0.8,0.1-1.1,0.1c-1,0.2-1.6,0.4-1.6,0.3c-0.1-0.1,0.9-0.5,0.8-0.8
				c0,0-0.1-0.1-0.7-0.2c-0.7-0.1-1.1-0.1-1.2,0c-0.1,0.2,0.1,0.4,0,0.5c-0.1,0.1-0.3,0-1-0.5c-0.5-0.4-0.5-0.4-0.6-0.4
				c-0.7-0.3-1.4,0.1-1.4,0c-0.1-0.2,0.8-0.6,0.7-0.9c0-0.1-0.3-0.1-0.6-0.2c-0.5-0.1-0.8-0.3-1.2-0.5c-1.2-0.5-2.6-0.4-2.6-0.5
				c0-0.1,1.8-0.6,3.5,0.1c0.5,0.2,0.8,0.4,1.5,0.6c0.6,0.1,0.9,0,1.8,0.2c0.2,0,0.2,0,0.8,0.2c0.8,0.2,0.9,0.2,1.2,0.2
				c0.6,0.1,0.9,0.3,1.4,0.5c0.5,0.2,1.2,0.4,2.1,0.5c0.6,0.4,1.6,0.9,3.1,1c-0.1-0.1-0.3-0.2-0.5-0.3c-0.1-0.1-0.4-0.4-0.4-0.5
				c0.1-0.1,0.3,0,0.8,0.2c0.1,0,0.5,0.1,1.2,0.2c0.8,0.2,0.8,0.1,1.5,0.3c1.6,0.3,2,0.5,2.2,0.7c0.4,0.3,0.6,0.6,0.7,0.8
				c-0.3-0.2-0.7-0.4-1.3-0.5c-0.4-0.1-0.8-0.2-1.1-0.2c0,0.1,0.1,0.2,0.2,0.3c0.2,0.2,0.4,0.2,0.4,0.2c0,0-0.5,0.1-1-0.2
				c-0.4-0.2-0.4-0.5-0.8-0.6c-0.1,0-0.2,0-0.7,0c-0.8,0-1.1-0.1-1.1,0c0,0.1,0.5,0.3,0.5,0.4c0,0.1-0.3,0.1-0.5,0
				c-0.2,0-0.3,0-0.3,0c-0.6-0.1-1,0-1-0.1c0-0.1,0.1-0.2,0.1-0.3c0-0.2-0.7-0.2-1.2-0.1C171.5,98.1,169.4,98.1,169.4,98z
				 M194.4,103.8c-0.8,0-1.7-0.1-2.3,0.2c-0.1,0-0.4,0.2-0.8,0.2c-0.3,0-0.5,0-0.7,0c0.3-0.3,0.3-0.4,0.2-0.4c0-0.1-0.2,0-0.6,0.2
				c-0.6,0.2-0.8,0.2-0.9,0.2c0,0-0.6,0-0.6-0.1c0-0.1,0.3-0.2,0.4-0.3c0.3-0.1,0.6-0.2,0.7-0.2c-0.6-0.2-1-0.2-1.3-0.1
				c-0.3,0.1-0.4,0.2-0.8,0.2c-0.3,0.1-0.7,0-1.2-0.1c-0.7-0.2-1.3-0.4-1.7-0.5c-0.7-0.3-1.3-0.4-2.1-0.7c-1.2-0.4-1.9-0.6-2.8-0.7
				c-1.3-0.1-1.4,0.1-2.2-0.1c-0.8-0.3-0.9-0.5-1.8-0.8c-0.8-0.2-1,0-1.9-0.1c-1.2-0.2-2.2-0.8-2.2-0.9c0-0.1,0.8,0.3,2.2,0.5
				c1,0.1,1.3,0,2.1,0.2c1,0.2,0.9,0.4,1.8,0.6c1.4,0.3,1.8,0,4.1,0.2c0.6,0.1,0.5,0.1,1.2,0.2c1.4,0.2,1.9,0.1,2.7,0.4
				c0.5,0.2,0.4,0.2,0.8,0.3c0.4,0.1,0.7,0.2,2.2,0.1c0.8,0,1.4-0.1,1.4,0c0,0.1-0.4,0.2-0.4,0.3c0,0.2,3.3-0.1,3.4,0.2
				c0,0.1-0.5,0.2-0.5,0.3c0,0.1,0.4,0,0.8,0c0.1,0,1.1,0,2.1,0.4c0.5,0.2,1.1,0.5,1,0.6C196.8,104.3,195.9,103.9,194.4,103.8z"/>
			<path d="M80.4,238.6c-0.6-0.5-1.4-1.1-2.5-1.8C78.9,237.6,79.7,238.2,80.4,238.6z"/>
			<path d="M141.5,104.5c0.5-0.4,0.6-1.2,0.5-1.2c-0.1,0-0.2,0.4-0.8,0.8c-0.6,0.4-1.1,0.3-1.1,0.4
				C140.1,104.6,140.9,104.9,141.5,104.5z"/>
			<path d="M134.5,109.2c0.5-0.5,0.4-0.9,0.9-1.3c0.4-0.4,0.5-0.2,1.1-0.6c0.8-0.6,0.8-0.9,1.6-1.5c0.6-0.5,1.1-0.6,1.1-0.7
				c0-0.1-1.3-0.1-2.5,0.6c-1,0.6-1.6,1.4-2.1,2.1c-0.6,0.8-1.1,2-1,2.1C133.7,109.9,134.2,109.5,134.5,109.2z"/>
			<path d="M165.5,91.7c0.4,0.1,0.4,0.2,0.5,0.2c0.2,0.2,0.3,0.4,0.3,0.4c0.1,0,0.2-0.3,0.1-0.5c-0.2-0.4-1.3-0.3-1.3-0.2
				C165.1,91.6,165.1,91.6,165.5,91.7z"/>
			<path d="M185.1,97.7c0.8,0.1,1.5-0.1,1.5-0.3c0-0.1-0.3-0.1-0.9-0.2c-1.7-0.3-2.4-0.8-2.5-0.6C183.1,96.8,184,97.6,185.1,97.7z"
				/>
			<path d="M200,101c0.3,0,0.9,0.1,0.9,0c0-0.2-2.5-1-2.6-0.8C198.3,100.3,199,100.9,200,101z"/>
			<path d="M208.7,102.6c1,0.3,1.2,0.1,2.1,0.4c1.1,0.3,1.3,0.6,2.3,0.7c0.6,0.1,1.3,0.1,1.3,0c0.1-0.3-6.9-1.8-7-1.6
				C207.4,102.2,208.2,102.4,208.7,102.6z"/>
			<path d="M228.4,107.2c0.7,0.2,1,0.1,3.1,0.2c0.4,0,0.5,0,0.8,0c1.1,0.1,1.6,0.2,1.6,0.1c0-0.1-0.7-0.4-1.7-0.6
				c-1.3-0.2-1.6,0.1-2.9-0.1c-1.4-0.2-2.3-0.7-2.4-0.6C226.9,106.4,227.6,106.9,228.4,107.2z"/>
			<path d="M221,105.6c1.1,0.5,1.8,0.7,2.7,0.7c0.4,0,1.1,0,1.1-0.2c0-0.2-1.1-0.3-3.2-0.9c-1.9-0.5-2.8-0.9-2.9-0.8
				C218.6,104.5,220.2,105.2,221,105.6z"/>
			<path d="M243.5,107.2c2.2,0.7,3.6,1.5,3.6,1.4c0.1-0.1-0.7-0.7-1.2-1c-0.5-0.4-1.5-1-2.8-1.2c-1.1-0.2-2.2-0.1-2.2,0
				C240.9,106.6,241.9,106.7,243.5,107.2z"/>
			<path d="M240.2,109.8c0.5,0.2,0.5,0.2,2.2,0.7c0.7,0.2,1.1,0.4,1.3,0.4c1,0.3,1.3,0.2,2.3,0.4c0.9,0.2,1.6,0.4,1.8,0.5
				c0.4,0.2,1.4,0.5,2.6,1.3c0.6,0.4,0.9,0.7,1.6,1c0.5,0.2,0.8,0.4,1.1,0.4c-0.5-0.7-1.1-1.2-1.4-1.5c-1.2-0.9-2.3-1.3-4.3-1.9
				c-0.8-0.3-1.2-0.4-1.7-0.4c-0.7-0.1-1.1,0-1.8-0.2c-0.4-0.1-0.6-0.3-1-0.5c-1.6-0.8-2.4-0.3-4.2-1.1c-0.5-0.2-0.5-0.3-0.9-0.4
				c-0.9-0.3-1.8-0.2-2.4-0.1c1,0.3,1.8,0.5,2.3,0.7C239.1,109.4,239.2,109.4,240.2,109.8z"/>
			<path d="M212.9,177.5c0.2,0.1,6.2-7.2,12.5-16.1c5.5-7.7,9.9-14.9,9.8-15c-0.1-0.1-2.8,3.9-10.4,14.5
				C216,173.2,212.8,177.4,212.9,177.5z"/>
		</g>
		<path class="st0" d="M40.1,195.6c-0.4,0.2-0.6,0.7-0.6,1.1c0.1,0.5,0.5,0.7,0.5,0.8c29.2,20,58.3,39.9,87.5,59.9
			c0.2,0.2,1.3,1.1,2.9,1.1c1.2-0.1,2-0.7,2.2-0.9c36-45.7,71.9-91.5,107.9-137.2c0.1-0.1,0.1-0.1,0.1-0.2c0-0.3-0.3-0.6-0.9-0.7
			c-25.4-5.7-50.8-11.5-76.2-17.2c-0.4-0.1-1.2-0.3-2.3-0.1c-0.9,0.2-1.5,0.5-1.9,0.8C119.6,133.8,79.8,164.7,40.1,195.6z"/>
		<g>
			<path d="M161.9,153c2.2-0.8,4.9-1.5,7.8-2c7-1.1,13-0.4,17.2,0.5c-5.5-2.8-11.1-5.5-16.7-8.3c-5.5-2.7-11-5.4-16.5-8.1
				c0.5,0.8,2.6,4,2,8.4c-0.5,4.5-3.5,7.2-4.2,7.8c-0.1-1.3-0.5-3.4-1.9-5.4c-3.7-5.2-11.5-5.1-15.6-5.1c-4.8,0.1-7.8,1.3-9.1,1.9
				c-1,0.5-1.8,1-2.4,1.3c4.2-1.7,7.8-2.2,10.2-2.3c3.6-0.2,6.2,0.2,6.9,0.4c1.8,0.3,3.4,0.8,4.5,1.2c-3.3-0.9-6.2-1.1-8.3-1.1
				c-3.6-0.1-8-0.2-12.6,2.3c-1.4,0.7-3.8,2.2-5.9,4.7c-2.2,2.6-3.3,5.3-4.2,8.6c-3.3,11.7-2.1,15.9-5.4,22.9
				c-1.5,3.1-3.2,5.4-4.3,6.6c3-1.2,7.7-2.8,13.6-3.9c6.6-1.2,10.5-0.9,19.7-1.6c3.8-0.3,9.4-0.8,16.4-1.7c-1.4,0.2-3.8,0.6-6.6,1
				c-9.8,1.3-12.7,1-22.1,2.3c-2.2,0.3-6.1,0.8-11,2.2c-2.3,0.6-4.2,1.3-5.5,1.7c0.9-0.1,2.1-0.4,3.7-0.7c2.6-0.5,3.3-0.8,5.2-1.2
				c2.9-0.6,5.1-0.9,6.7-1c1.8-0.2,4-0.4,6.5-0.4c-3,0.2-7.3,0.6-12.3,1.5c-3.8,0.7-7.5,1.6-7.4,1.7c0,0.1,5.8-1.2,14-2
				c4.2-0.4,7.2-0.5,12-0.7c6.3-0.3,10.7-0.3,17.6-1.1c0.7-0.1,1.5-0.2,2.3-0.3c3.1-0.5,7.7-1.5,13.1-3.4c3.1-0.9,5-2,6.7-3.5
				c3.8-3.3,4.4-6.6,4.5-7.2c0.7-3.7-0.9-6.7-1.4-7.6C175,153,162.4,153,161.9,153z M168.5,177.9c1.1-0.2,4.6-1,7.4-4.1
				c0.7-0.8,2.7-3.2,2.9-6.5c0.2-4.3-2.7-8.5-7.3-10.8c4.3,1.6,7.4,5.3,7.8,9.4C179.7,171.3,175.2,177,168.5,177.9z"/>
			<g>
				<path class="st4" d="M112.1,155.6c0,0-2.3,4.4-3.8,10.5c-0.4,1.6-0.8,3.6-1.7,7c-0.4,1.5-0.6,2.2-0.9,3.2
					c-2.1,6.2-5.2,10.6-6.8,12.9c-0.8,1.1-1.4,2-1.9,2.6c0.6-0.1,1.5-0.2,2.6-0.4c1.8-0.4,3-0.9,6.5-2.3c0.7-0.3,2-0.8,3.9-1.6
					c-2,0.5-3.6,1.1-4.6,1.6c-1.6,0.7-2.4,1.2-4,1.6c-1.4,0.4-2.5,0.5-3.3,0.5c0.2-0.3,0.4-0.6,0.7-1c0.2-0.3,0.9-1.3,1.8-2.7
					c0,0,0.8-1.3,1.5-2.5c0.3-0.6,3.7-6.4,5.3-12.4c0,0,0.2-0.9,0.7-2.8c1.6-6.5,1.8-7.6,2.4-9.3C111.2,157.6,112,155.6,112.1,155.6
					z"/>
				<path class="st4" d="M113.1,155.5c-0.1,0-2.2,3.9-3.1,9.5c-0.4,2.6-0.5,4.9-1.6,8.9c-0.2,0.8-0.4,1.6-0.9,2.7
					c-1,2.5-2.3,4.6-4.2,7.8c-1.5,2.4-2.8,4.4-3.8,5.7c0.5-0.1,1.2-0.2,2.1-0.4c1.2-0.3,1.9-0.7,3.7-1.4c0.6-0.2,1.4-0.6,2.5-0.9
					c-1.3,0.3-2.3,0.6-3.1,0.8c-0.9,0.3-1.8,0.6-3.3,1.1c-0.4,0.1-0.7,0.2-0.9,0.2c1.4-2,2.4-3.7,3.2-5.1c3-4.9,3.8-7.2,4.2-8.3
					c0.4-1,0.6-1.8,0.8-2.5c1-3.8,1.1-6.1,1.5-8.4C111.2,159.4,113.2,155.5,113.1,155.5z"/>
			</g>
		</g>
	</g>
</g>
</svg>
