<?xml version="1.0" encoding="utf-8"?>
<!-- Generator: Adobe Illustrator 27.2.0, SVG Export Plug-In . SVG Version: 6.00 Build 0)  -->
<!DOCTYPE svg PUBLIC "-//W3C//DTD SVG 1.1//EN" "http://www.w3.org/Graphics/SVG/1.1/DTD/svg11.dtd" [
	<!ENTITY ns_extend "http://ns.adobe.com/Extensibility/1.0/">
	<!ENTITY ns_ai "http://ns.adobe.com/AdobeIllustrator/10.0/">
	<!ENTITY ns_graphs "http://ns.adobe.com/Graphs/1.0/">
	<!ENTITY ns_vars "http://ns.adobe.com/Variables/1.0/">
	<!ENTITY ns_imrep "http://ns.adobe.com/ImageReplacement/1.0/">
	<!ENTITY ns_sfw "http://ns.adobe.com/SaveForWeb/1.0/">
	<!ENTITY ns_custom "http://ns.adobe.com/GenericCustomNamespace/1.0/">
	<!ENTITY ns_adobe_xpath "http://ns.adobe.com/XPath/1.0/">
]>
<svg version="1.1" xmlns:x="&ns_extend;" xmlns:i="&ns_ai;" xmlns:graph="&ns_graphs;"
	 xmlns="http://www.w3.org/2000/svg" xmlns:xlink="http://www.w3.org/1999/xlink" x="0px" y="0px" viewBox="0 0 350 350"
	 style="enable-background:new 0 0 350 350;" xml:space="preserve">
<metadata>
	<sfw  xmlns="&ns_sfw;">
		<slices></slices>
		<sliceSourceBounds  bottomLeftOrigin="true" height="16638" width="16638" x="-8191.5" y="-8191.5"></sliceSourceBounds>
	</sfw>
</metadata>
<switch>
	<g i:extraneous="self">
		<g id="IconGuides">
			<g id="InnerBorder">
			</g>
			<g id="OuterBorder">
			</g>
		</g>
		<g id="Layer_4">
			<path style="opacity:0.4;" d="M45,45v76.354c1.778,3.067,3.556,6.134,5.333,9.202c-1.778,0.435-3.556,0.87-5.333,1.306V305h260
				V45H45z"/>
			<rect x="73" y="73" style="fill:#F67F20;" width="204" height="204"/>
			<g>
				<path d="M237,293.333l89,30.167L254.667,234c8.42-12.181,13.725-23.316,17.07-31.575c11.951-29.506,12.014-54.725,11.93-66.258
					c-0.081-10.999-0.213-20.013-3.537-31.704c-5.649-19.867-16.211-32.326-19.13-35.63c-6.028-6.821-12.074-11.5-16.5-14.5
					c1.543,6.797,2.951,16.622,1.833,28.333c-0.815,8.54-2.745,15.707-4.667,21.167c-1.68-8.171-5.194-19.756-13.02-31.723
					C216.386,53.362,200.31,44.024,192.5,40.167c-8.557-4.227-16.305-6.377-21.875-7.542c5.112,5.581,11.539,13.74,16.208,23.875
					c2.879,6.249,3.821,10.493,4.167,14.167c0.417,4.43-0.021,8.151-0.5,10.708c-6.356-8.384-18.279-21.492-37-29.708
					c-13.486-5.919-26.027-7.337-31.53-7.919c-8.072-0.854-14.97-0.722-20.095-0.373c7.285,5.414,12.894,10.645,16.951,14.804
					c9.989,10.239,12.565,16.023,13.808,19.672c0.799,2.344,1.238,4.364,1.49,5.774c-2.556-1.514-6.377-3.589-11.232-5.53
					C107.907,72.102,94.846,72.096,87,72.167c-6.318,0.057-15.142,0.673-25.5,3.167c2.849-0.153,7.096,0.046,11.5,1.971
					c1.338,0.585,3.305,1.466,5.304,3.384c1.761,1.689,2.787,3.453,3.362,4.646C66.444,87.889,51.222,90.444,36,93l86.667,26.667
					l-6.833,4.5L45,102.333v12.721l7.002,2.915c-1.001,0.566-2.002,1.131-3.002,1.697c2.704,4.676,5.407,9.352,8.111,14.028
					c-4.037,1.128-8.074,2.255-12.111,3.383V159.5L168.5,230l2.5,4.333l-68.667-36.5l0.833,8l-77-40.667L47.5,209l10.833,4.833
					l5.667,16.5C53.111,225.222,42.222,220.111,31.333,215c7,10,14,20,21,30l146.5,55.5L179,278.667l78.667,36L237,293.333z
					 M47.18,146.982c-0.208-0.92-0.416-1.84-0.624-2.76c7.005-1.782,14.009-3.565,21.014-5.347
					c-2.857-5.143-5.713-10.287-8.569-15.431c0.849-0.5,1.697-1.001,2.546-1.501l6.65,2.769l-3.085,0.872
					c3.222,5.509,6.444,11.019,9.667,16.528c-6.741,1.778-13.481,3.556-20.222,5.333c0.38,1.14,0.76,2.28,1.14,3.42L47.18,146.982z
					 M67.049,156.041l-1.605-3.43l19.514-5.986l-9.75-16.25l3.61-1.241l7.497,3.121l-3.815,1.078l9.944,16.778l-19.167,5.722
					l1.317,3.648L67.049,156.041z M85.896,164.633l-1.674-3.578l19.514-5.986c-3.782-5.764-7.565-11.528-11.347-17.292
					c1.308-0.453,2.616-0.907,3.924-1.36l7.835,3.262c-1.438,0.385-2.876,0.769-4.314,1.154c3.796,5.907,7.593,11.815,11.389,17.722
					l-19.167,5.722c1.037,1.527,2.074,3.054,3.11,4.582L85.896,164.633z M116.401,178.54l-9.714-4.429
					c-1.062-1.315-2.124-2.63-3.186-3.945c5.819-2.449,11.639-4.898,17.458-7.347c-3.875-5.977-7.75-11.954-11.625-17.931
					c1.722-0.3,3.444-0.6,5.166-0.9l7.719,3.214c-1.618,0.433-3.236,0.866-4.855,1.299c1.397,2.092,2.795,4.185,4.192,6.277
					c-0.294,2.465-0.512,5.155-0.597,8.042c-0.078,2.65-0.036,5.138,0.086,7.441c-2.959,1.08-5.918,2.16-8.877,3.24
					C113.578,175.18,114.989,176.86,116.401,178.54z"/>
				<g>
					<polygon style="fill:#FFFFFF;" points="57.086,213.277 63.273,229.992 163.222,271.833 146.722,247.611 224.167,288.333
						209.75,271.417 302.917,306.25 253.75,251.167 283.333,293.583 185.167,245.417 196.583,263.333 117.028,216.75
						134.361,245.778 					"/>
					<path style="fill:#FFFFFF;" d="M256.778,82.667c3.348,5.109,7.652,12.779,10.778,22.778c0,0,4.343,13.892,4.111,30
						c-0.313,21.703-13.95,54.825-42.111,86.667c-2.738-2.066-5.176-3.277-6.889-4c-3.866-1.631-6.047-1.624-10.222-3.444
						c-2.524-1.101-4.451-2.292-5.667-3.111c-0.021-1.363-0.139-2.938-0.444-4.667c-0.43-2.436-1.11-4.492-1.778-6.111
						c0.521-0.47,1.278-1.267,1.889-2.444c0.57-1.098,0.793-2.104,0.889-2.778c0.138-0.344,0.305-0.412,0.375-0.431
						c0.363-0.096,0.914,0.405,1.292,1.319c0.371-0.115,0.937-0.305,1.604-0.59c2.335-0.999,3.591-2.177,5.854-3.896
						c0.889-0.675,2.202-1.638,3.875-2.736c0.947-3.708,1.981-7.507,3.111-11.389c1.361-4.675,2.775-9.176,4.222-13.5
						c-3.226,0.793-6.451,1.586-9.677,2.379c-2.885-2.411-5.771-4.821-8.656-7.232L208,155.444c-0.012-0.049-0.16-0.703,0.278-1.167
						c0.386-0.409,1.06-0.493,1.611-0.167c0.163-2.065,0.412-4.277,0.778-6.611c0.351-2.238,0.769-4.334,1.222-6.278
						c-0.366-0.5-0.895-1.244-1.5-2.167c-2.818-4.298-4.107-7.646-5.611-11.056c-1.05-2.38-2.609-5.707-4.778-9.667
						c-0.817,1.186-1.681,2.593-2.5,4.222c-0.783,1.556-1.377,3.022-1.833,4.333c-3.472,0.051-6.944,0.102-10.417,0.153
						c-1.397-1.085-2.617-1.777-3.472-2.208c-1.091-0.55-1.97-0.868-1.944-1.278c0.026-0.41,0.946-0.685,1.667-0.847
						c-2.403-3.542-4.806-7.083-7.208-10.625l-23-9.083c0.537,1.715,1.074,3.43,1.611,5.146c0.394,1.257,0.787,2.514,1.181,3.771
						c-0.821,0.813-1.754,1.666-2.806,2.528c-1.036,0.848-2.041,1.585-2.986,2.222c-2.766-1.073-7.209-2.743-12.75-4.583
						c-8.615-2.861-14.494-4.342-30.958-8.625c-4.098-1.066-11.171-2.909-20.25-5.292c0.452-0.204,1.175-0.514,2.083-0.833
						c2.716-0.955,4.919-1.23,10.969-1.797c1.974-0.185,3.669-0.337,4.989-0.453c-0.475-1.26-1.063-2.561-1.792-3.875
						c-4.473-8.064-11.781-12.173-16.208-14.125c2.287-0.157,5.658-0.264,9.708,0.083c5.3,0.455,14.376,1.334,23.5,7.083
						c2.365,1.49,5.723,3.931,9.167,7.75c-1.686-0.032-3.655,0.041-5.833,0.333c-2.229,0.299-4.188,0.761-5.833,1.25
						c1.656,0.173,4.513,0.459,8.083,0.75c8.552,0.697,11.822,0.655,17.878,1.434c1.976,0.254,5.08,0.702,8.914,1.483
						c0.274-2.358,0.477-5.969-0.208-10.25c-1.284-8.018-4.928-13.662-9.167-20.083c-1.989-3.013-4.943-7.1-9.056-11.583
						c1.765,0.409,4.2,1.025,7.056,1.917c6.237,1.947,11.277,4.205,13.667,5.417c8.777,4.45,14.635,11.427,20.083,17.917
						c4.531,5.397,10.405,13.393,15.667,24.167c-2.375-0.938-5.315-1.875-8.75-2.5c-4.836-0.88-9.058-0.852-12.256-0.581
						c0.307,0.344,0.614,0.689,0.921,1.033c0.834,0.047,1.984,0.141,3.341,0.341c1.196,0.176,5.524,0.874,10.681,3.231
						c5.033,2.3,8.79,5.237,11.341,7.615c2.268-2.477,5.365-6.445,7.639-11.972c3.111-7.562,3.03-14.028,2.917-19
						c-0.292-12.786-4.217-23.332-7.778-30.472c2.103,1.749,4.98,4.28,8.167,7.556c4.579,4.707,12.259,12.729,18,24.889
						c6.134,12.992,7.219,24.698,8.111,34.333c0.454,4.9,0.555,9.011,0.557,11.911c-2.683-2.981-7.107-7.19-13.557-10.689
						c-6.018-3.264-11.561-4.697-15.384-5.374c1.498,0.757,3.569,1.871,5.939,3.374c4.328,2.744,10.013,6.349,14.667,12.667
						c1.903,2.583,4.501,6.797,6.194,12.806c2.256-1.091,5.365-2.843,8.583-5.583c1.957-1.666,8.21-7.321,13.556-21.667
						C253.517,109.613,256.856,97.963,256.778,82.667z"/>
					<path style="fill:#FFFFFF;" d="M159.167,145c2.177,0.28,11.02,1.672,17.667,9.5c6.298,7.417,6.479,15.731,6.5,19
						c0.027,4.162,0.065,10.049-4.199,15.138c-4.242,5.064-10.134,6.225-12.135,6.528c-3.304-0.214-8.494-1.071-13.333-4.5
						c-11.642-8.248-16.124-27.745-7.541-38.357C147.55,150.55,151.286,146.62,159.167,145z"/>
					<path style="fill:#FFFFFF;" d="M185.167,145c-2.626-3.267-7.026-8.607-14.833-11.833c-2.923-1.208-12.85-5.348-23.427-0.781
						c-9.923,4.285-13.822,13.38-15.017,16.17c-2.461,5.742-2.602,10.673-2.667,14.111c-0.082,4.355-0.135,18.204,9.778,30.778
						c2.359,2.993,13.354,16.938,29.5,16.556c2.149-0.051,9.392-0.327,16.167-5.333c5.237-3.87,7.608-8.683,8.708-10.982
						C200.726,178.318,195.6,157.978,185.167,145z M186.81,188.594c-0.862,1.802-2.72,5.573-6.825,8.607
						c-5.31,3.924-10.986,4.14-12.67,4.18c-12.654,0.3-21.271-10.629-23.12-12.975c-7.769-9.854-7.727-20.708-7.663-24.121
						c0.051-2.695,0.161-6.559,2.09-11.059c0.937-2.186,3.992-9.314,11.769-12.672c8.289-3.579,16.07-0.335,18.36,0.612
						c6.118,2.528,9.567,6.714,11.625,9.274C188.554,160.61,192.571,176.551,186.81,188.594z"/>
				</g>
			</g>
		</g>
	</g>
</switch>
</svg>
