<?xml version="1.0" encoding="UTF-8" standalone="no"?>
<svg
  version="1.1"
  x="0px"
  y="0px"
  width="350"
  height="350"
  viewBox="0 0 350 350"
  xml:space="preserve"
  id="svg13"
  xmlns="http://www.w3.org/2000/svg"
  xmlns:svg="http://www.w3.org/2000/svg">
  <g
    id="background"
    style="display:inline;opacity:1">
		<rect
      style="display:inline;opacity:0.4;fill:#0e0e0e;fill-opacity:1;stroke-width:15;stroke-linejoin:round"
      id="rect13"
      width="260"
      height="260"
      x="45"
      y="45"/>
    <path
      id="rect1"
      style="display:inline;fill:#f16927;stroke-width:0.987869"
      d="m 83.1814,51.94796 c 14.229182,-0.07994 1.327053,20.004791 1.327053,20.004791 0.490456,-2.615766 14.556109,-9.890865 21.006517,-9.890865 6.45041,0 17.85942,6.948128 18.5951,9.890865 0,-20.602926 43.5913,-33.158748 49.52426,-33.124918 5.93296,0.03383 40.53113,10.171259 48.34793,33.124918 2.62644,-7.879339 9.47979,-11.912512 16.83822,-16.450771 7.35843,-4.538258 15.5029,-9.415806 19.86874,-19.481285 1.25007,-2.882047 7.81111,3.720818 12.00944,9.149459 4.19832,5.428642 7.67409,13.79614 7.67409,26.782597 v 43.874299 c 8.09848,4.81471 14.62686,19.64954 0,42.1965 v 51.60919 c 8.81044,5.00986 10.36522,29.27938 0,39.12634 v 29.45214 h -69.19701 c -16.04975,0.71332 -30.62039,36.46214 -36.02753,36.37943 -5.40714,-0.0827 -12.48789,-27.10624 -33.88756,-36.37943 H 71.490288 V 233.1463 c -5.931172,-4.56244 -8.861115,-7.445 -8.861115,-17.1214 0,-9.6764 5.059081,-15.36295 8.861115,-16.73168 v -9.99246 c -3.914091,-2.1919 -15.599659,-16.37159 -15.599659,-34.8354 0,-18.46382 15.599659,-31.66105 15.599659,-31.66105 V 110.10886 C 67.073646,103.354 63.436411,93.207146 63.436411,84.146038 63.436411,54.902835 83.1814,51.94796 83.1814,51.94796 Z"/>
	</g>
  <g
    id="icon"
    style="display:inline;fill:none;fill-opacity:1">
    <g
      id="black"
      style="display:inline;fill:none;fill-opacity:1">
      <path
        style="fill:#000000;fill-opacity:1;stroke:#000000;stroke-linejoin:round;stroke-opacity:1"
        d="m 190.88804,283.92484 c 9.15922,-29.18099 65.62193,-22.88881 62.7306,-40.45095 -39.08647,14.99207 -39.93145,-0.34817 -39.93145,-6.25952 0,-5.91135 5.72467,-13.38243 12.08736,-13.38243 6.36269,0 8.75932,3.8049 8.86641,6.91041 -10.18447,-0.0423 -12.86811,11.21561 2.14172,11.21561 9.90135,0 10.7789,-8.16744 10.7789,-11.85143 0,-3.684 -4.69674,-19.52985 -27.39902,-17.06687 18.09757,-9.20941 10.78894,-24.2885 10.78894,-24.2885 12.47554,2.03464 22.62029,-1.04283 29.64615,-4.62896 7.02586,-3.58614 11.51846,-8.69527 10.93283,-7.68093 -6.45861,11.18663 -15.15297,15.09159 -19.26267,19.94006 -4.10971,4.84847 -6.01076,8.87742 -6.01076,15.02292 0,6.1455 5.94603,9.62516 11.21835,9.65576 5.27233,0.0306 11.11846,-6.22315 1.61898,-12.05934 0,0 2.83976,-2.5707 6.39745,-2.44475 10.33764,0.36597 23.14343,26.36315 -0.38112,48.91976 -11.66477,11.18481 -52.90143,6.73098 -74.22267,28.44916 z"
        id="path3"/>
      <path
        style="display:inline;fill:#000000;fill-opacity:1;stroke:#000000;stroke-linejoin:round;stroke-opacity:1"
        d="M 158.66127,286.13483 C 132.6512,255.87426 84.731167,277.5359 85.011054,252.23101 c 0.243885,-22.04979 27.504886,-16.28356 27.858746,0.2409 -19.832532,-11.84281 -14.592984,10.3959 -2.97026,10.3959 7.2675,0 13.96648,-0.47413 13.96648,-9.9322 0,-24.24011 -38.223588,-44.97781 -38.223588,-33.13654 0,2.63793 2.567027,3.61285 5.940516,5.94052 -11.000429,4.50114 -21.534703,-0.0748 -21.534703,-10.6624 0,-9.35824 5.804857,-13.34718 13.861537,-13.34718 2.398075,0 38.390298,1.40626 74.751488,84.40482 z"
        id="path2"/>
      <path
        style="display:inline;fill:#000000;fill-opacity:1;stroke:#000000;stroke-linecap:round;stroke-linejoin:round;stroke-opacity:1"
        d="m 173.83723,308.57471 c 1.22612,-31.19806 -27.38345,-65.66578 -27.38345,-65.66578 l 18.80058,14.03231 c 1.4986,-6.26686 -8.85534,-16.6208 -8.85534,-16.6208 9.67276,-3.81461 10.89889,-12.83865 10.89889,-17.71069 0,-18.76812 -31.33431,-59.94388 -31.33431,-59.94388 0,0 17.84693,18.52811 20.43542,17.98317 2.45225,-4.35955 -22.20649,-31.19806 -23.16014,-46.4565 0,0 15.39468,13.35113 20.43541,12.94242 2.17978,-5.72192 -22.88766,-24.9312 -22.88766,-24.9312 V 79.016924 c 0,-24.989893 37.59937,-36.598849 42.6419,-36.598849 5.04253,0 41.25292,10.780589 41.45043,36.259171 0.0338,4.359166 0,42.709094 0,42.709094 -18.26983,13.07919 -20.50393,21.07118 -26.87317,33.65031 1.36236,3.4059 21.934,-16.34833 21.934,-16.34833 -28.39124,30.55146 -42.40238,68.06576 -7.90169,77.10962 -10.62641,3.95085 -19.20929,17.43823 -18.39187,22.20649 6.67557,1.77107 20.02671,-10.08147 20.02671,-10.08147 -7.22052,6.94804 -17.71069,20.0267 -15.66715,25.33991 5.31321,2.58849 14.03231,-8.03794 14.03231,-8.03794 -14.98597,17.98317 -26.70227,45.09415 -28.20087,63.34978 z"
        id="path4"/>
      <path
        style="display:inline;fill:#000000;fill-opacity:1;stroke:#000000;stroke-linejoin:round;stroke-opacity:1"
        d="M 224.23567,122.88361 V 86.004037 c -0.58749,-20.77994 20.96874,-23.226361 31.71421,-36.548501 1.59429,-1.976599 3.09018,-5.370403 4.39234,-6.672568 0.97009,-0.970086 4.72672,4.072121 6.71787,6.821954 7.98817,11.03183 20.33718,53.146258 -43.06723,78.417778 18.86309,-9.87465 31.15596,-37.829211 31.15596,-47.125605 0,-22.858565 -36.93944,-3.752427 -11.53475,8.151228 0.37412,8.854064 -19.3784,33.835287 -19.3784,33.835287 z"
        id="path5"/>
      <path
        style="display:inline;fill:#000000;fill-opacity:1;stroke:#000000;stroke-linejoin:round;stroke-opacity:1"
        d="m 125.78293,152.52988 c 0,0 -3.61445,-5.02521 -3.61445,-10.60239 V 91.672462 c 0,-14.419757 -8.45925,-23.038675 -18.011,-23.038675 -9.551742,0 -14.266646,6.274378 -14.1194,16.845345 0.147246,10.570967 4.918814,18.319158 13.17589,18.319158 4.12014,0 6.75606,-0.87837 6.75606,-7.012577 0,-9.853627 -9.82319,-4.391875 -9.82319,-9.371404 0,-1.879768 0.36738,-4.514733 5.69738,-4.514733 12.62676,0 19.38223,33.967714 -2.47089,33.967714 -14.730089,0 -26.498963,-14.29735 -26.498963,-33.890297 0,-18.330628 7.664981,-21.375253 6.071211,-23.418909 -1.593771,-2.043657 -14.030024,2.815664 -14.030024,24.779133 0,15.216491 19.518037,51.084253 56.867376,68.192663 z"
        id="path6"/>
    </g>
    <g
      id="white">
      <path
        style="fill:#ffffff;fill-opacity:1;stroke:#ffffff;stroke-linejoin:round;stroke-opacity:1"
        d="M 169.4882,210.4426 166.65289,106.79647 H 136.40965 V 91.044776 l 15.12162,2.52027 c 0.44058,0.03055 -15.43666,-10.396116 -15.43666,-10.396116 0,0 -1.57021,-8.991035 3.68505,-15.658351 l 17.73725,7.467472 -13.86149,-13.861489 c 5.26097,-7.113204 24.21602,-15.550416 29.57575,-15.550416 5.35973,0 17.75907,5.783963 17.75907,5.783963 l -9.84579,16.06713 15.60628,-12.345798 c 5.1005,2.783921 8.35976,6.629079 10.3067,11.061281 -6.14772,5.002714 -18.98224,18.296343 -18.98224,18.296343 l 22.48607,-9.766048 v 17.153884 l -14.36225,14.973439 h -14.49155 l -5.28852,164.76882 0.44049,-210.812698 -3.32351,-3.542412 z"
        id="path7"/>
      <path
        style="fill:#ffffff;fill-opacity:1;stroke:#ffffff;stroke-opacity:1"
        d="m 202.04055,106.76449 h 8.48802 v -8.814478 z"
        id="path8"/>
      <path
        style="display:inline;fill:#ffffff;fill-opacity:1;stroke:#ffffff;stroke-linejoin:round;stroke-opacity:1"
        d="m 74.271806,129.43597 c -2.48085,2.48085 -36.496511,49.1483 30.493234,69.43175 19.44272,5.88695 37.55335,6.11591 37.55335,13.52243 0,4.16944 -9.6642,1.38866 -9.6642,10.85833 0,14.45609 23.04059,12.89663 23.04059,-3.22128 0,-35.74414 -55.947958,-73.66046 -67.21744,-83.55001 -3.679831,29.66864 13.6119,46.02971 13.6119,46.02971 -0.0995,-14.61987 21.87005,-14.72302 21.87005,-1.35233 0,35.04814 -50.644664,-0.97023 -50.644664,-28.75183 0,-11.25625 0.260995,-14.5131 0.95718,-22.96677 z"
        id="path9"/>
      <path
        style="display:inline;fill:#ffffff;fill-opacity:1;stroke:#ffffff;stroke-linejoin:round;stroke-opacity:1"
        d="m 194.60597,191.54063 c 0,-23.63819 14.71425,-39.17306 31.91975,-50.08803 17.2055,-10.91496 32.78649,-8.50363 48.76677,-35.03243 -11.90765,41.83309 -63.53392,32.65464 -63.53392,57.33867 0,11.36292 7.85769,13.0584 14.31693,13.0584 17.8446,0 12.74723,-24.31529 -3.91741,-16.1862 6.2323,-9.89039 34.99106,1.0993 58.04149,-35.89396 4.9452,28.11311 -23.82259,52.05358 -40.09473,55.10854 -16.27214,3.05495 -35.88474,-1.16334 -35.88474,5.22879 0,6.39214 14.27527,-1.51552 14.16769,10.535 -0.0778,8.71277 -23.78183,17.44405 -23.78183,-4.06878 z"
        id="path10"/>
    </g>
  </g>
</svg>
