<?xml version="1.0" encoding="utf-8"?>
<!-- Generator: Adobe Illustrator 25.2.1, SVG Export Plug-In . SVG Version: 6.00 Build 0)  -->
<svg version="1.1" xmlns="http://www.w3.org/2000/svg" xmlns:xlink="http://www.w3.org/1999/xlink" x="0px" y="0px"
	 viewBox="0 0 350 350" style="enable-background:new 0 0 350 350;" xml:space="preserve">
<style type="text/css">
	.st0{opacity:0.4;}
	.st1{fill:#FFFFFF;}
	.st2{fill:#D7542B;}
	.st3{fill:#1E1111;}
	.st4{fill:none;}
</style>
<g id="IconGuides">
	<g id="InnerBorder">
	</g>
	<g id="OuterBorder">
	</g>
</g>
<g>
	<rect x="45" y="45" class="st0" width="260" height="260"/>
	<path d="M246.7,264.8c-48,0-95.9,0-143.9,0c-3.3-1.4-11.4-5.3-17.6-14.2c-6.6-9.5-7.1-19.2-7.2-22.7c0-40.2,0-80.4,0-120.5
		c64.7,0,129.3,0,194,0c0,37.8,0,75.7,0,113.5c-0.2,5.2-1.3,16.7-9.1,28.3C257.4,257.3,250.8,262.2,246.7,264.8z"/>
	<g>
		<g>
			<g>
				<path class="st1" d="M127.6,216.7c-8.2-2.9-16.4-5.8-24.6-8.8c-8.2,2.9-16.4,5.8-24.6,8.8c-1,6.8-0.8,12.5-0.4,16.4
					c0.6,5.9,2.4,22.2,14.9,35.4c3.8,4,7.5,6.6,10.1,8.3c2.6-1.6,6.3-4.3,10.1-8.3c12.5-13.2,14.3-29.4,14.9-35.4
					C128.4,229.2,128.6,223.5,127.6,216.7z"/>
				<path d="M123.8,219.6c-6.9-2.5-13.9-5-20.8-7.5c-6.9,2.5-13.9,5-20.8,7.5c-0.7,7.6-1.5,29.3,13.1,45.4c2.5,2.7,5.1,5,7.7,6.9
					c2.6-1.9,5.3-4.1,7.7-6.9C125.3,248.9,124.5,227.2,123.8,219.6z"/>
				<path class="st2" d="M119.9,222.6c-5.6-2-11.3-3.9-16.9-5.9c-5.6,2-11.3,3.9-16.9,5.9c-0.5,7.4-0.7,25.2,11.4,38.7
					c1.8,2,3.7,3.7,5.6,5.2c1.9-1.5,3.8-3.2,5.6-5.2C120.6,247.9,120.5,230,119.9,222.6z"/>
			</g>
			<g>
				<path class="st1" d="M175.6,216.7c-8.2-2.9-16.4-5.8-24.6-8.8c-8.2,2.9-16.4,5.8-24.6,8.8c-1,6.8-0.8,12.5-0.4,16.4
					c0.6,5.9,2.4,22.2,14.9,35.4c3.8,4,7.5,6.6,10.1,8.3c2.6-1.6,6.3-4.3,10.1-8.3c12.5-13.2,14.3-29.4,14.9-35.4
					C176.4,229.2,176.6,223.5,175.6,216.7z"/>
				<path d="M171.8,219.6c-6.9-2.5-13.9-5-20.8-7.5c-6.9,2.5-13.9,5-20.8,7.5c-0.7,7.6-1.5,29.3,13.1,45.4c2.5,2.7,5.1,5,7.7,6.9
					c2.6-1.9,5.3-4.1,7.7-6.9C173.3,248.9,172.5,227.2,171.8,219.6z"/>
				<path class="st2" d="M167.9,222.6c-5.6-2-11.3-3.9-16.9-5.9c-5.6,2-11.3,3.9-16.9,5.9c-0.5,7.4-0.7,25.2,11.4,38.7
					c1.8,2,3.7,3.7,5.6,5.2c1.9-1.5,3.8-3.2,5.6-5.2C168.6,247.9,168.4,230,167.9,222.6z"/>
			</g>
			<g>
				<path class="st1" d="M223.4,216.7c-8.2-2.9-16.4-5.8-24.6-8.8c-8.2,2.9-16.4,5.8-24.6,8.8c-1,6.8-0.8,12.5-0.4,16.4
					c0.6,5.9,2.4,22.2,14.9,35.4c3.8,4,7.5,6.6,10.1,8.3c2.6-1.6,6.3-4.3,10.1-8.3c12.5-13.2,14.3-29.4,14.9-35.4
					C224.2,229.2,224.4,223.5,223.4,216.7z"/>
				<path d="M219.6,219.6c-6.9-2.5-13.9-5-20.8-7.5c-6.9,2.5-13.9,5-20.8,7.5c-0.7,7.6-1.5,29.3,13.1,45.4c2.5,2.7,5.1,5,7.7,6.9
					c2.6-1.9,5.3-4.1,7.7-6.9C221.1,248.9,220.3,227.2,219.6,219.6z"/>
				<path class="st2" d="M215.7,222.6c-5.6-2-11.3-3.9-16.9-5.9c-5.6,2-11.3,3.9-16.9,5.9c-0.5,7.4-0.7,25.2,11.4,38.7
					c1.8,2,3.7,3.7,5.6,5.2c1.9-1.5,3.8-3.2,5.6-5.2C216.4,247.9,216.3,230,215.7,222.6z"/>
			</g>
			<g>
				<path class="st1" d="M271.1,216.7c-8.2-2.9-16.4-5.8-24.6-8.8c-8.2,2.9-16.4,5.8-24.6,8.8c-1,6.8-0.8,12.5-0.4,16.4
					c0.6,5.9,2.4,22.2,14.9,35.4c3.8,4,7.5,6.6,10.1,8.3c2.6-1.6,6.3-4.3,10.1-8.3c12.5-13.2,14.3-29.4,14.9-35.4
					C271.9,229.2,272.1,223.5,271.1,216.7z"/>
				<path d="M267.3,219.6c-6.9-2.5-13.9-5-20.8-7.5c-6.9,2.5-13.9,5-20.8,7.5c-0.7,7.6-1.5,29.3,13.1,45.4c2.5,2.7,5.1,5,7.7,6.9
					c2.6-1.9,5.3-4.1,7.7-6.9C268.8,248.9,268,227.2,267.3,219.6z"/>
				<path class="st2" d="M263.4,222.6c-5.6-2-11.3-3.9-16.9-5.9c-5.6,2-11.3,3.9-16.9,5.9c-0.5,7.4-0.7,25.2,11.4,38.7
					c1.8,2,3.7,3.7,5.6,5.2c1.9-1.5,3.8-3.2,5.6-5.2C264.1,247.9,264,230,263.4,222.6z"/>
			</g>
		</g>
		<g>
			<g>
				<path class="st1" d="M152.8,191.1c-8.2-2.9-16.4-5.8-24.6-8.8c-8.2,2.9-16.4,5.8-24.6,8.8c-1,6.8-0.8,12.5-0.4,16.4
					c0.6,5.9,2.4,22.2,14.9,35.4c3.8,4,7.5,6.6,10.1,8.3c2.6-1.6,6.3-4.3,10.1-8.3c12.5-13.2,14.3-29.4,14.9-35.4
					C153.6,203.6,153.8,197.9,152.8,191.1z"/>
				<path d="M149.1,194c-6.9-2.5-13.9-5-20.8-7.5c-6.9,2.5-13.9,5-20.8,7.5c-0.7,7.6-1.5,29.3,13.1,45.4c2.5,2.7,5.1,5,7.7,6.9
					c2.6-1.9,5.3-4.1,7.7-6.9C150.5,223.3,149.7,201.6,149.1,194z"/>
				<path class="st2" d="M145.2,197c-5.6-2-11.3-3.9-16.9-5.9c-5.6,2-11.3,3.9-16.9,5.9c-0.5,7.4-0.7,25.2,11.4,38.8
					c1.8,2,3.7,3.7,5.6,5.2c1.9-1.5,3.8-3.2,5.6-5.2C145.8,222.3,145.7,204.4,145.2,197z"/>
			</g>
			<g>
				<path class="st1" d="M200.5,191.1c-8.2-2.9-16.4-5.8-24.6-8.8c-8.2,2.9-16.4,5.8-24.6,8.8c-1,6.8-0.8,12.5-0.4,16.4
					c0.6,5.9,2.4,22.2,14.9,35.4c3.8,4,7.5,6.6,10.1,8.3c2.6-1.6,6.3-4.3,10.1-8.3c12.5-13.2,14.3-29.4,14.9-35.4
					C201.3,203.6,201.5,197.9,200.5,191.1z"/>
				<path d="M196.7,194c-6.9-2.5-13.9-5-20.8-7.5c-6.9,2.5-13.9,5-20.8,7.5c-0.7,7.6-1.5,29.3,13.1,45.4c2.5,2.7,5.1,5,7.7,6.9
					c2.6-1.9,5.3-4.1,7.7-6.9C198.2,223.3,197.4,201.6,196.7,194z"/>
				<path class="st2" d="M192.9,197c-5.6-2-11.3-3.9-16.9-5.9c-5.6,2-11.3,3.9-16.9,5.9c-0.5,7.4-0.7,25.2,11.4,38.8
					c1.8,2,3.7,3.7,5.6,5.2c1.9-1.5,3.8-3.2,5.6-5.2C193.5,222.3,193.4,204.4,192.9,197z"/>
			</g>
			<g>
				<path class="st1" d="M248.7,191.1c-8.2-2.9-16.4-5.8-24.6-8.8c-8.2,2.9-16.4,5.8-24.6,8.8c-1,6.8-0.8,12.5-0.4,16.4
					c0.6,5.9,2.4,22.2,14.9,35.4c3.8,4,7.5,6.6,10.1,8.3c2.6-1.6,6.3-4.3,10.1-8.3c12.5-13.2,14.3-29.4,14.9-35.4
					C249.5,203.6,249.7,197.9,248.7,191.1z"/>
				<path d="M244.9,194c-6.9-2.5-13.9-5-20.8-7.5c-6.9,2.5-13.9,5-20.8,7.5c-0.7,7.6-1.5,29.3,13.1,45.4c2.5,2.7,5.1,5,7.7,6.9
					c2.6-1.9,5.3-4.1,7.7-6.9C246.4,223.3,245.6,201.6,244.9,194z"/>
				<path class="st2" d="M241,197c-5.6-2-11.3-3.9-16.9-5.9c-5.6,2-11.3,3.9-16.9,5.9c-0.5,7.4-0.7,25.2,11.4,38.8
					c1.8,2,3.7,3.7,5.6,5.2c1.9-1.5,3.8-3.2,5.6-5.2C241.7,222.3,241.6,204.4,241,197z"/>
			</g>
		</g>
		<g>
			<g>
				<path class="st1" d="M127.7,167.4c-8.2-2.9-16.4-5.8-24.6-8.8c-8.2,2.9-16.4,5.8-24.6,8.8c-1,6.8-0.8,12.5-0.4,16.4
					c0.6,5.9,2.4,22.2,14.9,35.4c3.8,4,7.5,6.6,10.1,8.3c2.6-1.6,6.3-4.3,10.1-8.3c12.5-13.2,14.3-29.4,14.9-35.4
					C128.5,179.9,128.7,174.2,127.7,167.4z"/>
				<path d="M124,170.3c-6.9-2.5-13.9-5-20.8-7.5c-6.9,2.5-13.9,5-20.8,7.5c-0.7,7.6-1.5,29.3,13.1,45.4c2.5,2.7,5.1,5,7.7,6.9
					c2.6-1.9,5.3-4.1,7.7-6.9C125.4,199.6,124.6,177.9,124,170.3z"/>
				<path class="st2" d="M120.1,173.3c-5.6-2-11.3-3.9-16.9-5.9c-5.6,2-11.3,3.9-16.9,5.9c-0.5,7.4-0.7,25.2,11.4,38.8
					c1.8,2,3.7,3.7,5.6,5.2c1.9-1.5,3.8-3.2,5.6-5.2C120.7,198.5,120.6,180.7,120.1,173.3z"/>
			</g>
			<g>
				<path class="st1" d="M175.6,167.4c-8.2-2.9-16.4-5.8-24.6-8.8c-8.2,2.9-16.4,5.8-24.6,8.8c-1,6.8-0.8,12.5-0.4,16.4
					c0.6,5.9,2.4,22.2,14.9,35.4c3.8,4,7.5,6.6,10.1,8.3c2.6-1.6,6.3-4.3,10.1-8.3c12.5-13.2,14.3-29.4,14.9-35.4
					C176.4,179.9,176.6,174.2,175.6,167.4z"/>
				<path d="M171.8,170.3c-6.9-2.5-13.9-5-20.8-7.5c-6.9,2.5-13.9,5-20.8,7.5c-0.7,7.6-1.5,29.3,13.1,45.4c2.5,2.7,5.1,5,7.7,6.9
					c2.6-1.9,5.3-4.1,7.7-6.9C173.3,199.6,172.5,177.9,171.8,170.3z"/>
				<path class="st2" d="M167.9,173.3c-5.6-2-11.3-3.9-16.9-5.9c-5.6,2-11.3,3.9-16.9,5.9c-0.5,7.4-0.7,25.2,11.4,38.8
					c1.8,2,3.7,3.7,5.6,5.2c1.9-1.5,3.8-3.2,5.6-5.2C168.6,198.5,168.5,180.7,167.9,173.3z"/>
			</g>
			<g>
				<path class="st1" d="M223.4,167.4c-8.2-2.9-16.4-5.8-24.6-8.8c-8.2,2.9-16.4,5.8-24.6,8.8c-1,6.8-0.8,12.5-0.4,16.4
					c0.6,5.9,2.4,22.2,14.9,35.4c3.8,4,7.5,6.6,10.1,8.3c2.6-1.6,6.3-4.3,10.1-8.3c12.5-13.2,14.3-29.4,14.9-35.4
					C224.2,179.9,224.4,174.2,223.4,167.4z"/>
				<path d="M219.7,170.3c-6.9-2.5-13.9-5-20.8-7.5c-6.9,2.5-13.9,5-20.8,7.5c-0.7,7.6-1.5,29.3,13.1,45.4c2.5,2.7,5.1,5,7.7,6.9
					c2.6-1.9,5.3-4.1,7.7-6.9C221.1,199.6,220.3,177.9,219.7,170.3z"/>
				<path class="st2" d="M215.8,173.3c-5.6-2-11.3-3.9-16.9-5.9c-5.6,2-11.3,3.9-16.9,5.9c-0.5,7.4-0.7,25.2,11.4,38.8
					c1.8,2,3.7,3.7,5.6,5.2c1.9-1.5,3.8-3.2,5.6-5.2C216.4,198.5,216.3,180.7,215.8,173.3z"/>
			</g>
			<g>
				<path class="st1" d="M271.2,167.4c-8.2-2.9-16.4-5.8-24.6-8.8c-8.2,2.9-16.4,5.8-24.6,8.8c-1,6.8-0.8,12.5-0.4,16.4
					c0.6,5.9,2.4,22.2,14.9,35.4c3.8,4,7.5,6.6,10.1,8.3c2.6-1.6,6.3-4.3,10.1-8.3c12.5-13.2,14.3-29.4,14.9-35.4
					C272,179.9,272.2,174.2,271.2,167.4z"/>
				<path d="M267.5,170.3c-6.9-2.5-13.9-5-20.8-7.5c-6.9,2.5-13.9,5-20.8,7.5c-0.7,7.6-1.5,29.3,13.1,45.4c2.5,2.7,5.1,5,7.7,6.9
					c2.6-1.9,5.3-4.1,7.7-6.9C268.9,199.6,268.1,177.9,267.5,170.3z"/>
				<path class="st2" d="M263.6,173.3c-5.6-2-11.3-3.9-16.9-5.9c-5.6,2-11.3,3.9-16.9,5.9c-0.5,7.4-0.7,25.2,11.4,38.8
					c1.8,2,3.7,3.7,5.6,5.2c1.9-1.5,3.8-3.2,5.6-5.2C264.2,198.5,264.1,180.7,263.6,173.3z"/>
			</g>
		</g>
		<g>
			<g>
				<path class="st1" d="M153,140.2c-8.2-2.9-16.4-5.8-24.6-8.8c-8.2,2.9-16.4,5.8-24.6,8.8c-1,6.8-0.8,12.5-0.4,16.4
					c0.6,5.9,2.4,22.2,14.9,35.4c3.8,4,7.5,6.6,10.1,8.3c2.6-1.6,6.3-4.3,10.1-8.3c12.5-13.2,14.3-29.4,14.9-35.4
					C153.7,152.7,153.9,147.1,153,140.2z"/>
				<path d="M149.2,143.1c-6.9-2.5-13.9-5-20.8-7.5c-6.9,2.5-13.9,5-20.8,7.5c-0.7,7.6-1.5,29.3,13.1,45.4c2.5,2.7,5.1,5,7.7,6.9
					c2.6-1.9,5.3-4.1,7.7-6.9C150.7,172.4,149.8,150.7,149.2,143.1z"/>
				<path class="st2" d="M145.3,146.1c-5.6-2-11.3-3.9-16.9-5.9c-5.6,2-11.3,3.9-16.9,5.9c-0.5,7.4-0.7,25.2,11.4,38.8
					c1.8,2,3.7,3.7,5.6,5.2c1.9-1.5,3.8-3.2,5.6-5.2C146,171.4,145.8,153.5,145.3,146.1z"/>
			</g>
			<g>
				<path class="st1" d="M200.6,140.2c-8.2-2.9-16.4-5.8-24.6-8.8c-8.2,2.9-16.4,5.8-24.6,8.8c-1,6.8-0.8,12.5-0.4,16.4
					c0.6,5.9,2.4,22.2,14.9,35.4c3.8,4,7.5,6.6,10.1,8.3c2.6-1.6,6.3-4.3,10.1-8.3c12.5-13.2,14.3-29.4,14.9-35.4
					C201.4,152.7,201.6,147.1,200.6,140.2z"/>
				<path d="M196.9,143.1c-6.9-2.5-13.9-5-20.8-7.5c-6.9,2.5-13.9,5-20.8,7.5c-0.7,7.6-1.5,29.3,13.1,45.4c2.5,2.7,5.1,5,7.7,6.9
					c2.6-1.9,5.3-4.1,7.7-6.9C198.3,172.4,197.5,150.7,196.9,143.1z"/>
				<path class="st2" d="M193,146.1c-5.6-2-11.3-3.9-16.9-5.9c-5.6,2-11.3,3.9-16.9,5.9c-0.5,7.4-0.7,25.2,11.4,38.8
					c1.8,2,3.7,3.7,5.6,5.2c1.9-1.5,3.8-3.2,5.6-5.2C193.6,171.4,193.5,153.5,193,146.1z"/>
			</g>
			<g>
				<path class="st1" d="M248.8,140.2c-8.2-2.9-16.4-5.8-24.6-8.8c-8.2,2.9-16.4,5.8-24.6,8.8c-1,6.8-0.8,12.5-0.4,16.4
					c0.6,5.9,2.4,22.2,14.9,35.4c3.8,4,7.5,6.6,10.1,8.3c2.6-1.6,6.3-4.3,10.1-8.3c12.5-13.2,14.3-29.4,14.9-35.4
					C249.6,152.7,249.8,147.1,248.8,140.2z"/>
				<path d="M245.1,143.1c-6.9-2.5-13.9-5-20.8-7.5c-6.9,2.5-13.9,5-20.8,7.5c-0.7,7.6-1.5,29.3,13.1,45.4c2.5,2.7,5.1,5,7.7,6.9
					c2.6-1.9,5.3-4.1,7.7-6.9C246.5,172.4,245.7,150.7,245.1,143.1z"/>
				<path class="st2" d="M241.2,146.1c-5.6-2-11.3-3.9-16.9-5.9c-5.6,2-11.3,3.9-16.9,5.9c-0.5,7.4-0.7,25.2,11.4,38.8
					c1.8,2,3.7,3.7,5.6,5.2c1.9-1.5,3.8-3.2,5.6-5.2C241.8,171.4,241.7,153.5,241.2,146.1z"/>
			</g>
		</g>
		<g>
			<path class="st1" d="M217,72.9v31h-12v-31h-60v31h-12v-31h-60c1.5,20.1,3.1,40.2,4.6,60.3c0.2,3.1,0.1,8,1.9,14.3
				c4.3,15,15.1,25,23.1,30.9c3.8-2.3,9.2-6.2,14-12.4c7.8-10.1,9.8-20.5,10.5-25.6c0.6,4.5,2,11.6,6.3,19.2
				c5.9,10.4,13.9,16.2,18.1,18.9c3.7-2.3,9.8-6.6,15-13.9c5.8-8.1,7.8-16,8.6-20.4c0.8,4.3,2.7,11.7,7.9,19.3
				c5.5,8.1,12,12.8,15.8,15.1c3.9-2.4,10.1-7,15.3-14.5c6.9-9.9,8.7-19.7,9.2-24.6c0.5,4.7,2.1,12.9,7.3,21.6
				c5.7,9.5,13.1,14.9,17.1,17.5c2.3-1.4,5.5-3.6,8.9-6.8c9.5-9.3,14.9-20.5,15.8-33.9c1.5-21.6,3-43.2,4.5-64.8
				C257,72.9,237,72.9,217,72.9z"/>
			<path class="st3" d="M226.1,81.1v31h-29.2v-31h-43v31h-29.1v-31h-43v31c0,7.4,0,14.8,0,22.3c0.3,6,2,19.1,11.7,30.7
				c3,3.6,6.2,6.4,9.1,8.4c3.6-2.4,8.5-6.4,12.8-12.7c7.8-11.5,8.3-23.3,8.2-28.1c2.3,0,4.6,0,6.9,0c0.1,5.7,1,20.2,11.5,32.4
				c3.2,3.7,6.5,6.4,9.5,8.4c3.6-2.5,9.6-7.5,14.4-15.6c6.1-10.5,6.7-20.6,6.7-25.2c1.8,0,3.5,0,5.3,0c0,4.7,0.5,15.3,7.2,26.1
				c4.6,7.5,10.3,12.1,13.9,14.6c3.6-2.6,9.2-7.3,13.7-14.7c6.5-10.8,7.2-21.3,7.2-26.1c2.4,0,4.8,0,7.2,0c0,4.5,0.7,12.4,4.8,21.2
				c4.9,10.6,12.3,16.8,16.1,19.6c4.3-3.1,11.1-8.9,15.6-17.9c3-6.1,4.2-11.9,4.6-13.9c0.7-3.5,1-6.6,1-8.9c0-6.9,0-13.7,0-20.6v-31
				H226.1z"/>
			<path class="st4" d="M269.1,120.3"/>
			<path class="st2" d="M260.8,120.3V89.2h-27v31.1h-45.1V89.2h-27v31.1h-45.2V89.2h-27v31.1c-1.3,4.3-2.6,8.5-3.9,12.8
				c0.1,4.7,1,13.5,6.3,22.8c3.4,6,7.5,10.2,10.6,12.8c3.3-2.8,8.7-8.1,12.6-16.5c3.4-7.3,4.3-13.9,4.5-18c0-1.8,0-3.5,0-5.3
				c5,0,9.9,0,14.9,0c0,2.5,0,5,0,7.5c0.3,4.5,1.5,12.9,7.1,21.6c3.3,5.1,7,8.6,9.9,10.8c3-2.5,7.3-6.8,10.8-13
				c4.8-8.5,5.8-16.4,6.1-20.8c0-2,0-4.1,0-6.1c4.5,0,9.1,0,13.6,0c-0.1,1.2-0.1,3,0,5.3c0.2,4.7,1.1,18.1,10.6,29
				c1.3,1.5,3.3,3.6,6.3,5.8c3.5-3,5.9-6,7.5-8.1c7.8-10.7,9-21.7,9.3-26.2c0.1-2.4,0.1-4.4,0-5.7c5.1,0,10.2,0,15.4,0
				c0,2.5,0,5,0,7.5c0.4,4.3,1.6,11.7,6.1,19.6c3.5,6.2,7.7,10.4,10.7,13c3.1-2.7,7.7-7.4,11.3-14.3c4.7-9,5.5-17.4,5.6-22
				C263.4,128.5,262.1,124.4,260.8,120.3z"/>
		</g>
	</g>
</g>
</svg>
